# This file uses centimeters as units for non-parametric coordinates.

mtllib cigarette.mtl
g default
v 10.000000 0.951057 -0.309017
v 10.000000 0.809018 -0.587786
v 10.000000 0.587786 -0.809017
v 10.000000 0.309017 -0.951057
v 10.000000 0.000000 -1.000000
v 10.000000 -0.309017 -0.951057
v 10.000000 -0.587785 -0.809017
v 10.000000 -0.809017 -0.587785
v 10.000000 -0.951057 -0.309017
v 10.000000 -1.000000 0.000000
v 10.000000 -0.951057 0.309017
v 10.000000 -0.809017 0.587785
v 10.000000 -0.587785 0.809017
v 10.000000 -0.309017 0.951057
v 10.000000 -0.000000 1.000000
v 10.000000 0.309017 0.951057
v 10.000000 0.587785 0.809017
v 10.000000 0.809017 0.587785
v 10.000000 0.951057 0.309017
v 10.000000 1.000000 0.000000
v -10.000000 0.951057 -0.309017
v -10.000000 0.809018 -0.587786
v -10.000000 0.587786 -0.809017
v -10.000000 0.309017 -0.951057
v -10.000000 0.000000 -1.000000
v -10.000000 -0.309017 -0.951057
v -10.000000 -0.587785 -0.809017
v -10.000000 -0.809017 -0.587785
v -10.000000 -0.951057 -0.309017
v -10.000000 -1.000000 0.000000
v -10.000000 -0.951057 0.309017
v -10.000000 -0.809017 0.587785
v -10.000000 -0.587785 0.809017
v -10.000000 -0.309017 0.951057
v -10.000000 -0.000000 1.000000
v -10.000000 0.309017 0.951057
v -10.000000 0.587785 0.809017
v -10.000000 0.809017 0.587785
v -10.000000 0.951057 0.309017
v -10.000000 1.000000 0.000000
v 10.000000 0.000000 0.000000
v -10.000000 0.000000 0.000000
vt 0.154409 0.001126
vt 0.179772 0.001126
vt 0.179772 0.997142
vt 0.154409 0.997142
vt 0.199899 0.001126
vt 0.199899 0.997142
vt 0.126295 0.001126
vt 0.126295 0.997142
vt 0.098181 0.001126
vt 0.098181 0.997142
vt 0.072819 0.001126
vt 0.072819 0.997142
vt 0.052691 0.001126
vt 0.052691 0.997142
vt 0.326980 0.001126
vt 0.352342 0.001126
vt 0.352342 0.997142
vt 0.326980 0.997142
vt 0.380457 0.001126
vt 0.380457 0.997142
vt 0.306852 0.001126
vt 0.306852 0.997142
vt 0.408571 0.001126
vt 0.408571 0.997142
vt 0.433933 0.001126
vt 0.433933 0.997142
vt 0.454061 0.001126
vt 0.454061 0.997142
vt 0.920904 0.643082
vt 0.938313 0.677251
vt 0.821742 0.710871
vt 0.944312 0.715128
vt 0.893787 0.615966
vt 0.938313 0.753004
vt 0.859618 0.598556
vt 0.920904 0.787173
vt 0.821742 0.592557
vt 0.893787 0.814289
vt 0.783866 0.598556
vt 0.859618 0.831699
vt 0.749697 0.615966
vt 0.821742 0.837698
vt 0.722580 0.643082
vt 0.783866 0.831699
vt 0.705171 0.677251
vt 0.749697 0.814289
vt 0.699171 0.715128
vt 0.722580 0.787173
vt 0.705171 0.753004
vt 0.936216 0.362125
vt 0.918808 0.396294
vt 0.819646 0.319992
vt 0.891690 0.423410
vt 0.942216 0.324249
vt 0.857521 0.440820
vt 0.936216 0.286372
vt 0.819646 0.446820
vt 0.918808 0.252204
vt 0.781769 0.440820
vt 0.891690 0.225087
vt 0.747600 0.423410
vt 0.857521 0.207677
vt 0.720484 0.396294
vt 0.819646 0.201678
vt 0.703074 0.362125
vt 0.781769 0.207677
vt 0.697074 0.324249
vt 0.747600 0.225087
vt 0.703074 0.286372
vt 0.720484 0.252204
vt 0.225262 0.001126
vt 0.225262 0.997142
vt 0.253376 0.001126
vt 0.253376 0.997142
vt 0.281490 0.001126
vt 0.281490 0.997142
vt 0.479423 0.001126
vt 0.479423 0.997142
vt 0.507537 0.001126
vt 0.507537 0.997142
vt 0.535652 0.001126
vt 0.535652 0.997142
vt 0.561014 0.001126
vt 0.561014 0.997142
vn 0.000000 0.951057 -0.309016
vn 0.000000 0.809017 -0.587785
vn 0.000000 0.809017 -0.587785
vn 0.000000 0.951057 -0.309016
vn 0.000000 0.587785 -0.809017
vn 0.000000 0.587785 -0.809017
vn 0.000000 0.309017 -0.951057
vn 0.000000 0.309017 -0.951057
vn -0.000000 -0.000000 -1.000000
vn -0.000000 -0.000000 -1.000000
vn -0.000000 -0.309017 -0.951056
vn -0.000000 -0.309017 -0.951056
vn -0.000000 -0.587785 -0.809017
vn -0.000000 -0.587785 -0.809017
vn -0.000000 -0.809017 -0.587785
vn -0.000000 -0.809017 -0.587785
vn -0.000000 -0.951057 -0.309017
vn -0.000000 -0.951057 -0.309017
vn 0.000000 -1.000000 0.000000
vn 0.000000 -1.000000 0.000000
vn 0.000000 -0.951057 0.309017
vn 0.000000 -0.951057 0.309017
vn 0.000000 -0.809017 0.587785
vn 0.000000 -0.809017 0.587785
vn 0.000000 -0.587785 0.809017
vn 0.000000 -0.587785 0.809017
vn 0.000000 -0.309017 0.951057
vn 0.000000 -0.309017 0.951057
vn 0.000000 0.000000 1.000000
vn 0.000000 0.000000 1.000000
vn 0.000000 0.309017 0.951057
vn 0.000000 0.309017 0.951057
vn 0.000000 0.587785 0.809017
vn 0.000000 0.587785 0.809017
vn 0.000000 0.809017 0.587785
vn 0.000000 0.809017 0.587785
vn 0.000000 0.951057 0.309017
vn 0.000000 0.951057 0.309017
vn 0.000000 1.000000 0.000001
vn 0.000000 1.000000 0.000001
vn 1.000000 0.000000 0.000000
vn 1.000000 0.000000 0.000000
vn 1.000000 0.000000 0.000000
vn 1.000000 0.000000 -0.000001
vn 1.000000 0.000000 -0.000001
vn 1.000000 0.000000 0.000000
vn 1.000000 0.000000 0.000000
vn 1.000000 0.000000 -0.000003
vn 1.000000 0.000000 -0.000000
vn 1.000000 0.000000 0.000003
vn 1.000000 0.000000 0.000000
vn 1.000000 0.000000 0.000000
vn 1.000000 0.000000 0.000000
vn 1.000000 0.000000 -0.000001
vn 1.000000 0.000000 -0.000001
vn 1.000000 0.000000 -0.000000
vn 1.000000 0.000000 0.000000
vn 1.000000 0.000000 0.000000
vn 1.000000 0.000000 0.000003
vn 1.000000 0.000000 0.000003
vn 1.000000 0.000000 0.000000
vn -1.000000 0.000000 0.000000
vn -1.000000 0.000000 0.000000
vn -1.000000 0.000000 0.000000
vn -1.000000 0.000000 0.000000
vn -1.000000 0.000000 0.000000
vn -1.000000 0.000000 0.000000
vn -1.000000 0.000000 0.000000
vn -1.000000 0.000000 -0.000002
vn -1.000000 0.000000 0.000002
vn -1.000000 0.000000 0.000003
vn -1.000000 0.000000 0.000000
vn -1.000000 0.000000 0.000000
vn -1.000000 0.000000 0.000000
vn -1.000000 0.000000 0.000000
vn -1.000000 0.000000 0.000000
vn -1.000000 0.000000 0.000000
vn -1.000000 0.000000 0.000000
vn -1.000000 0.000000 0.000000
vn -1.000000 0.000000 0.000000
vn -1.000000 0.000000 0.000000
vn -1.000000 0.000000 0.000000
s 1
g cigarette
usemtl phong1SG
f 1/1/1 2/2/2 22/3/3 21/4/4
f 2/2/2 3/5/5 23/6/6 22/3/3
f 3/5/5 4/71/7 24/72/8 23/6/6
f 4/71/7 5/73/9 25/74/10 24/72/8
f 5/73/9 6/75/11 26/76/12 25/74/10
f 6/75/11 7/21/13 27/22/14 26/76/12
f 7/21/13 8/15/15 28/18/16 27/22/14
f 8/15/15 9/16/17 29/17/18 28/18/16
f 9/16/17 10/19/19 30/20/20 29/17/18
f 10/19/19 11/23/21 31/24/22 30/20/20
f 11/23/21 12/25/23 32/26/24 31/24/22
f 12/25/23 13/27/25 33/28/26 32/26/24
f 13/27/25 14/77/27 34/78/28 33/28/26
f 14/77/27 15/79/29 35/80/30 34/78/28
f 15/79/29 16/81/31 36/82/32 35/80/30
f 16/81/31 17/83/33 37/84/34 36/82/32
f 17/13/33 18/11/35 38/12/36 37/14/34
f 18/11/35 19/9/37 39/10/38 38/12/36
f 19/9/37 20/7/39 40/8/40 39/10/38
f 20/7/39 1/1/1 21/4/4 40/8/40
s 2
f 2/29/41 1/30/42 41/31/43
f 3/33/44 2/29/41 41/31/43
f 4/35/45 3/33/44 41/31/43
f 5/37/46 4/35/45 41/31/43
f 6/39/47 5/37/46 41/31/43
f 7/41/48 6/39/47 41/31/43
f 8/43/49 7/41/48 41/31/43
f 9/45/50 8/43/49 41/31/43
f 10/47/51 9/45/50 41/31/43
f 11/49/52 10/47/51 41/31/43
f 12/48/53 11/49/52 41/31/43
f 13/46/54 12/48/53 41/31/43
f 14/44/55 13/46/54 41/31/43
f 15/42/56 14/44/55 41/31/43
f 16/40/57 15/42/56 41/31/43
f 17/38/58 16/40/57 41/31/43
f 18/36/59 17/38/58 41/31/43
f 19/34/60 18/36/59 41/31/43
f 20/32/61 19/34/60 41/31/43
f 1/30/42 20/32/61 41/31/43
s 3
f 21/50/62 22/51/63 42/52/64
f 22/51/63 23/53/65 42/52/64
f 23/53/65 24/55/66 42/52/64
f 24/55/66 25/57/67 42/52/64
f 25/57/67 26/59/68 42/52/64
f 26/59/68 27/61/69 42/52/64
f 27/61/69 28/63/70 42/52/64
f 28/63/70 29/65/71 42/52/64
f 29/65/71 30/67/72 42/52/64
f 30/67/72 31/69/73 42/52/64
f 31/69/73 32/70/74 42/52/64
f 32/70/74 33/68/75 42/52/64
f 33/68/75 34/66/76 42/52/64
f 34/66/76 35/64/77 42/52/64
f 35/64/77 36/62/78 42/52/64
f 36/62/78 37/60/79 42/52/64
f 37/60/79 38/58/80 42/52/64
f 38/58/80 39/56/81 42/52/64
f 39/56/81 40/54/82 42/52/64
f 40/54/82 21/50/62 42/52/64
g default
v -0.500000 -0.500000 0.500000
v 0.500000 -0.500000 0.500000
v -0.500000 0.500000 0.500000
v 0.500000 0.500000 0.500000
v -0.500000 0.500000 -0.500000
v 0.500000 0.500000 -0.500000
v -0.500000 -0.500000 -0.500000
v 0.500000 -0.500000 -0.500000
vt 0.375000 0.000000
vt 0.625000 0.000000
vt 0.375000 0.250000
vt 0.625000 0.250000
vt 0.375000 0.500000
vt 0.625000 0.500000
vt 0.375000 0.750000
vt 0.625000 0.750000
vt 0.375000 1.000000
vt 0.625000 1.000000
vt 0.875000 0.000000
vt 0.875000 0.250000
vt 0.125000 0.000000
vt 0.125000 0.250000
vn 0.000000 0.000000 1.000000
vn 0.000000 0.000000 1.000000
vn 0.000000 0.000000 1.000000
vn 0.000000 0.000000 1.000000
vn 0.000000 1.000000 0.000000
vn 0.000000 1.000000 0.000000
vn 0.000000 1.000000 0.000000
vn 0.000000 1.000000 0.000000
vn 0.000000 0.000000 -1.000000
vn 0.000000 0.000000 -1.000000
vn 0.000000 0.000000 -1.000000
vn 0.000000 0.000000 -1.000000
vn 0.000000 -1.000000 0.000000
vn 0.000000 -1.000000 0.000000
vn 0.000000 -1.000000 0.000000
vn 0.000000 -1.000000 0.000000
vn 1.000000 0.000000 0.000000
vn 1.000000 0.000000 0.000000
vn 1.000000 0.000000 0.000000
vn 1.000000 0.000000 0.000000
vn -1.000000 0.000000 0.000000
vn -1.000000 0.000000 0.000000
vn -1.000000 0.000000 0.000000
vn -1.000000 0.000000 0.000000
s off
g pCube1
usemtl initialShadingGroup
f 43/85/83 44/86/84 46/88/85 45/87/86
f 45/87/87 46/88/88 48/90/89 47/89/90
f 47/89/91 48/90/92 50/92/93 49/91/94
f 49/91/95 50/92/96 44/94/97 43/93/98
f 44/86/99 50/95/100 48/96/101 46/88/102
f 49/97/103 43/85/104 45/87/105 47/98/106
