# Blender v2.80 (sub 44) OBJ File: 'Cardboard Box.blend'
# www.blender.org
mtllib Cardboard Box (Closed).mtl
o Cardboard_Box_Cube
v 1.000000 1.000000 -1.000000
v 1.000000 -1.000000 -1.000000
v 1.000000 1.000000 1.000000
v 1.000000 -1.000000 1.000000
v -1.000000 1.000000 -1.000000
v -1.000000 -1.000000 -1.000000
v -1.000000 1.000000 1.000000
v -1.000000 -1.000000 1.000000
v -1.000000 -1.000000 0.000000
v 1.000000 1.000000 0.000000
v -1.000000 1.000000 0.000000
v 1.000000 -1.000000 0.000000
v 1.015530 1.000000 -1.015530
v 1.015530 -1.023212 -1.015530
v 1.015530 1.000000 1.015530
v 1.015530 -1.023212 1.015530
v -1.015530 1.000000 -1.015530
v -1.015530 -1.023212 -1.015530
v -1.015530 1.000000 1.015530
v -1.015530 -1.023212 1.015530
v -1.015530 -1.023212 0.000000
v 1.015530 1.000000 0.000000
v -1.015530 1.000000 0.000000
v 1.015530 -1.023212 0.000000
vt 0.375000 0.250000
vt 0.375000 0.500000
vt 0.625000 0.500000
vt 0.625000 0.250000
vt 0.375000 0.625000
vt 0.375000 0.750000
vt 0.625000 0.750000
vt 0.625000 0.625000
vt 0.375000 0.875000
vt 0.375000 1.000000
vt 0.625000 1.000000
vt 0.625000 0.875000
vt 0.125000 0.625000
vt 0.125000 0.750000
vt 0.375000 0.750000
vt 0.375000 0.625000
vt 0.625000 0.500000
vt 0.625000 0.750000
vt 0.875000 0.750000
vt 0.875000 0.500000
vt 0.125000 0.500000
vt 0.375000 0.500000
vt 0.375000 0.250000
vt 0.625000 0.250000
vt 0.625000 0.500000
vt 0.375000 0.500000
vt 0.375000 0.625000
vt 0.625000 0.625000
vt 0.625000 0.750000
vt 0.375000 0.750000
vt 0.375000 0.875000
vt 0.625000 0.875000
vt 0.625000 1.000000
vt 0.375000 1.000000
vt 0.125000 0.625000
vt 0.375000 0.625000
vt 0.375000 0.750000
vt 0.125000 0.750000
vt 0.625000 0.500000
vt 0.875000 0.500000
vt 0.875000 0.750000
vt 0.625000 0.750000
vt 0.125000 0.500000
vt 0.375000 0.500000
vt 0.000000 0.000000
vt 0.000000 0.000000
vt 0.000000 0.000000
vt 0.000000 0.000000
vt 0.000000 0.000000
vt 0.000000 0.000000
vn 0.0000 0.0000 -1.0000
vn 1.0000 0.0000 0.0000
vn 0.0000 1.0000 0.0000
vn -1.0000 0.0000 0.0000
vn 0.0000 0.0000 1.0000
vn 0.0000 -1.0000 0.0000
usemtl Material
s off
f 4/1/1 8/2/1 7/3/1 3/4/1
f 9/5/2 6/6/2 5/7/2 11/8/2
f 9/9/3 8/10/3 4/11/3 12/12/3
f 12/13/4 4/14/4 3/15/4 10/16/4
f 6/17/5 2/18/5 1/19/5 5/20/5
f 2/21/4 12/13/4 10/16/4 1/22/4
f 6/6/3 9/9/3 12/12/3 2/18/3
f 8/2/2 9/5/2 11/8/2 7/3/2
f 16/23/5 15/24/5 19/25/5 20/26/5
f 21/27/4 23/28/4 17/29/4 18/30/4
f 21/31/6 24/32/6 16/33/6 20/34/6
f 24/35/2 22/36/2 15/37/2 16/38/2
f 18/39/1 17/40/1 13/41/1 14/42/1
f 14/43/2 13/44/2 22/36/2 24/35/2
f 18/30/6 14/42/6 24/32/6 21/31/6
f 20/26/4 19/25/4 23/28/4 21/27/4
f 10/16/3 3/15/3 15/37/3 22/36/3
f 7/3/3 11/8/3 23/28/3 19/25/3
f 5/20/3 1/19/3 13/41/3 17/40/3
f 3/4/3 7/3/3 19/25/3 15/24/3
f 1/22/3 10/16/3 22/36/3 13/44/3
f 11/8/3 5/7/3 17/29/3 23/28/3
f 11/45/3 10/46/3 1/47/3 5/48/3
f 3/49/3 10/46/3 11/45/3 7/50/3
o Tape_Cube.003
v -1.011539 0.996426 0.045397
v -1.011539 0.996426 -0.028394
v -1.011539 0.996426 -0.161670
v -1.011539 0.996426 0.120780
v -1.023243 1.009939 -0.028394
v -1.011539 -0.826322 0.161670
v -1.011539 1.009939 -0.028394
v -1.011539 -0.826322 -0.161670
v -1.023243 1.009939 0.120780
v -1.011539 1.009939 0.120780
v -1.023243 -0.826322 0.161670
v -1.023243 -0.826322 -0.161670
v -1.023243 1.009939 -0.102185
v -1.011539 -0.826322 0.045397
v -1.011539 1.009939 -0.102185
v -1.023243 -0.826322 0.045397
v -1.011539 -0.826322 -0.102185
v -1.023243 -0.826322 -0.102185
v -1.023243 1.009939 0.045397
v -1.011539 1.009939 0.045397
v -1.023243 1.009939 -0.161670
v -1.023243 1.009939 0.161670
v -1.011539 -0.826322 0.120780
v -1.023243 -0.826322 0.120780
v -1.011539 1.009939 -0.161670
v -1.011539 1.009939 0.161670
v -1.011539 -0.826322 -0.028394
v -1.023243 -0.826322 -0.028394
v -1.011539 0.996426 0.161670
v -1.023243 0.996426 -0.102185
v -1.023243 0.996426 0.045397
v -1.023243 0.996426 0.120780
v -1.023243 0.996426 0.161670
v -1.023243 0.996426 -0.161670
v -1.011539 0.996426 -0.102185
v -1.023243 0.996426 -0.028394
v 1.011539 0.996426 0.045397
v 1.011539 0.996426 -0.028394
v 1.011539 0.996426 -0.161670
v 1.011539 0.996426 0.120780
v 1.023243 1.009939 -0.028394
v 1.011539 -0.826322 0.161670
v 1.011539 1.009939 -0.028394
v 1.011539 -0.826322 -0.161670
v 1.023243 1.009939 0.120780
v 1.011539 1.009939 0.120780
v 1.023243 -0.826322 0.161670
v 1.023243 -0.826322 -0.161670
v 1.023243 1.009939 -0.102185
v 1.011539 -0.826322 0.045397
v 1.011539 1.009939 -0.102185
v 1.023243 -0.826322 0.045397
v 1.011539 -0.826322 -0.102185
v 1.023243 -0.826322 -0.102185
v 1.023243 1.009939 0.045397
v 1.011539 1.009939 0.045397
v 1.023243 1.009939 -0.161670
v 1.023243 1.009939 0.161670
v 1.011539 -0.826322 0.120780
v 1.023243 -0.826322 0.120780
v 1.011539 1.009939 -0.161670
v 1.011539 1.009939 0.161670
v 1.011539 -0.826322 -0.028394
v 1.023243 -0.826322 -0.028394
v 0.000000 0.996426 -0.108118
v 0.000000 1.009939 -0.167603
v 0.000000 0.996426 0.114847
v 0.000000 1.009939 0.155737
v 0.000000 0.996426 -0.034327
v 0.000000 0.996426 0.155737
v 0.000000 0.996426 0.039464
v 0.000000 1.009939 -0.108118
v 0.000000 0.996426 -0.167603
v 0.000000 1.009939 -0.034327
v 0.000000 1.009939 0.039464
v 0.000000 1.009939 0.114847
v 1.011539 0.996426 0.161670
v 1.023243 0.996426 -0.102185
v 1.023243 0.996426 0.045397
v 1.023243 0.996426 0.120780
v 1.023243 0.996426 0.161670
v 1.023243 0.996426 -0.161670
v 1.011539 0.996426 -0.102185
v 1.023243 0.996426 -0.028394
vt 1.000000 1.000000
vt 1.000000 0.816031
vt 1.000000 0.816031
vt 1.000000 1.000000
vt 1.000000 0.000000
vt 1.000000 0.126461
vt 1.000000 0.126461
vt 1.000000 0.000000
vt 1.000000 0.359600
vt 1.000000 0.359600
vt 1.000000 0.359600
vt 1.000000 0.126461
vt 1.000000 0.126461
vt 1.000000 0.359600
vt 1.000000 0.587816
vt 1.000000 0.587816
vt 1.000000 0.587816
vt 1.000000 0.587816
vt 1.000000 0.000000
vt 1.000000 0.000000
vt 1.000000 0.816031
vt 1.000000 1.000000
vt 1.000000 1.000000
vt 1.000000 0.816031
vt 1.000000 0.816031
vt 1.000000 1.000000
vt 1.000000 1.000000
vt 1.000000 0.816031
vt 1.000000 0.587816
vt 1.000000 0.587816
vt 1.000000 0.126461
vt 1.000000 0.359600
vt 1.000000 0.359600
vt 1.000000 0.126461
vt 1.000000 0.000000
vt 1.000000 0.126461
vt 1.000000 0.000000
vt 1.000000 0.126461
vt 1.000000 1.000000
vt 1.000000 0.587816
vt 1.000000 0.587816
vt 1.000000 0.816031
vt 1.000000 0.359600
vt 1.000000 0.359600
vt 1.000000 0.000000
vt 1.000000 0.000000
vt 1.000000 1.000000
vt 1.000000 0.816031
vt 1.000000 1.000000
vt 1.000000 0.816031
vt 1.000000 0.000000
vt 1.000000 0.126461
vt 1.000000 0.359600
vt 1.000000 0.359600
vt 1.000000 0.126461
vt 1.000000 0.587816
vt 1.000000 0.587816
vt 1.000000 0.000000
vt 1.000000 0.816031
vt 1.000000 0.816031
vt 1.000000 1.000000
vt 1.000000 1.000000
vt 1.000000 0.816031
vt 1.000000 0.816031
vt 1.000000 1.000000
vt 1.000000 1.000000
vt 1.000000 0.587816
vt 1.000000 0.587816
vt 1.000000 0.126461
vt 1.000000 0.126461
vt 1.000000 0.359600
vt 1.000000 0.359600
vt 1.000000 0.126461
vt 1.000000 0.000000
vt 1.000000 0.000000
vt 1.000000 0.126461
vt 1.000000 1.000000
vt 1.000000 0.587816
vt 1.000000 0.587816
vt 1.000000 0.816031
vt 1.000000 0.359600
vt 1.000000 0.359600
vt 1.000000 0.000000
vt 1.000000 0.000000
vn 0.0000 1.0000 0.0000
vn 0.0000 -1.0000 0.0000
vn 1.0000 0.0000 0.0000
vn 0.0000 0.0000 1.0000
vn 0.0000 0.0000 -1.0000
vn -0.0059 0.0000 -1.0000
vn 0.0059 0.0000 1.0000
vn -1.0000 0.0000 0.0000
vn 0.0059 0.0000 -1.0000
vn -0.0059 0.0000 1.0000
usemtl Material
s off
f 27/51/7 59/52/7 89/53/7 97/54/7
f 50/55/8 34/56/8 100/57/8 92/58/8
f 34/56/8 44/59/8 99/60/8 100/57/8
f 25/61/7 28/62/7 91/63/7 95/64/7
f 26/65/7 25/61/7 95/64/7 93/66/7
f 44/59/8 31/67/8 98/68/8 99/60/8
f 28/62/7 53/69/7 94/70/7 91/63/7
f 54/71/9 58/72/9 45/73/9 37/74/9
f 41/75/7 32/76/7 36/77/7 42/78/7
f 60/79/9 54/71/9 37/74/9 29/80/9
f 47/81/7 38/82/7 40/83/7 48/84/7
f 50/55/8 46/85/8 33/86/8 34/56/8
f 57/87/9 56/88/9 33/86/9 46/85/9
f 58/72/10 27/51/10 49/89/10 45/73/10
f 51/90/7 41/75/7 42/78/7 52/91/7
f 39/92/8 37/74/8 45/73/8 49/89/8
f 34/56/8 33/86/8 43/93/8 44/59/8
f 53/69/11 57/87/11 46/85/11 50/55/11
f 55/94/9 60/79/9 29/80/9 43/93/9
f 30/95/7 47/81/7 48/84/7 35/96/7
f 56/88/9 55/94/9 43/93/9 33/86/9
f 44/59/8 43/93/8 29/80/8 31/67/8
f 38/82/7 51/90/7 52/91/7 40/83/7
f 31/67/8 29/80/8 37/74/8 39/92/8
f 53/69/12 50/55/12 92/58/12 94/70/12
f 49/89/13 27/51/13 97/54/13 90/97/13
f 31/67/8 39/92/8 96/98/8 98/68/8
f 39/92/8 49/89/8 90/97/8 96/98/8
f 59/52/7 26/65/7 93/66/7 89/53/7
f 38/82/14 47/81/14 28/62/14 25/61/14
f 52/91/9 42/78/9 54/71/9 60/79/9
f 47/81/14 30/95/14 53/69/14 28/62/14
f 36/77/10 32/76/10 27/51/10 58/72/10
f 40/83/9 52/91/9 60/79/9 55/94/9
f 30/95/11 35/96/11 57/87/11 53/69/11
f 51/90/14 38/82/14 25/61/14 26/65/14
f 48/84/9 40/83/9 55/94/9 56/88/9
f 35/96/9 48/84/9 56/88/9 57/87/9
f 32/76/14 41/75/14 59/52/14 27/51/14
f 41/75/14 51/90/14 26/65/14 59/52/14
f 42/78/9 36/77/9 58/72/9 54/71/9
f 63/99/7 97/54/7 89/53/7 107/100/7
f 86/101/8 92/58/8 100/57/8 70/102/8
f 70/102/8 100/57/8 99/60/8 80/103/8
f 61/104/7 95/64/7 91/63/7 64/105/7
f 62/106/7 93/66/7 95/64/7 61/104/7
f 80/103/8 99/60/8 98/68/8 67/107/8
f 64/105/7 91/63/7 94/70/7 101/108/7
f 102/109/14 73/110/14 81/111/14 106/112/14
f 77/113/7 78/114/7 72/115/7 68/116/7
f 108/117/14 65/118/14 73/110/14 102/109/14
f 83/119/7 84/120/7 76/121/7 74/122/7
f 86/101/8 70/102/8 69/123/8 82/124/8
f 105/125/14 82/124/14 69/123/14 104/126/14
f 106/112/10 81/111/10 85/127/10 63/99/10
f 87/128/7 88/129/7 78/114/7 77/113/7
f 75/130/8 85/127/8 81/111/8 73/110/8
f 70/102/8 80/103/8 79/131/8 69/123/8
f 101/108/11 86/101/11 82/124/11 105/125/11
f 103/132/14 79/131/14 65/118/14 108/117/14
f 66/133/7 71/134/7 84/120/7 83/119/7
f 104/126/14 69/123/14 79/131/14 103/132/14
f 80/103/8 67/107/8 65/118/8 79/131/8
f 74/122/7 76/121/7 88/129/7 87/128/7
f 67/107/8 75/130/8 73/110/8 65/118/8
f 101/108/15 94/70/15 92/58/15 86/101/15
f 85/127/16 90/97/16 97/54/16 63/99/16
f 67/107/8 98/68/8 96/98/8 75/130/8
f 75/130/8 96/98/8 90/97/8 85/127/8
f 107/100/7 89/53/7 93/66/7 62/106/7
f 74/122/9 61/104/9 64/105/9 83/119/9
f 88/129/14 108/117/14 102/109/14 78/114/14
f 83/119/9 64/105/9 101/108/9 66/133/9
f 72/115/10 106/112/10 63/99/10 68/116/10
f 76/121/14 103/132/14 108/117/14 88/129/14
f 66/133/11 101/108/11 105/125/11 71/134/11
f 87/128/9 62/106/9 61/104/9 74/122/9
f 84/120/14 104/126/14 103/132/14 76/121/14
f 71/134/14 105/125/14 104/126/14 84/120/14
f 68/116/9 63/99/9 107/100/9 77/113/9
f 77/113/9 107/100/9 62/106/9 87/128/9
f 78/114/14 102/109/14 106/112/14 72/115/14
