# This file uses centimeters as units for non-parametric coordinates.

mtllib chips.mtl
g default
v -14.334179 0.476267 -1.008490
v -11.433747 0.223231 -0.706156
v -14.334179 1.072331 -1.043813
v -11.433747 1.278376 -0.798686
v -14.115809 1.061269 -2.613315
v -11.433748 1.002212 -3.070541
v -14.115809 0.469298 -2.611500
v -11.433747 0.422697 -2.873812
v -15.326729 0.563326 -2.873812
v -15.368344 0.549065 -0.987573
v -15.368344 0.884159 -0.986432
v -15.325513 0.841892 -2.873812
v -11.433747 0.666562 0.260924
v -14.120549 0.666718 -0.487831
v -15.557679 0.646045 -0.349619
v -15.851419 0.712608 -3.445893
v -13.918857 0.666718 -3.258134
v -11.433747 0.638496 -3.445893
v -11.433747 1.082484 0.087762
v -14.120549 0.908981 -0.487831
v -15.557679 0.778606 -0.348922
v -15.851419 0.764345 -3.445893
v -13.918987 0.906960 -3.258134
v -11.433747 0.847750 -3.445893
v -11.839679 1.266241 -0.903017
v -11.839679 0.894367 -2.855829
v -11.839679 0.877267 -3.402558
v -11.839679 0.637793 -3.402558
v -11.839679 0.426651 -2.856893
v -11.839679 0.345994 -0.813558
v -11.839679 0.700557 0.018583
v -11.839679 1.024262 -0.107203
v -11.659651 0.513837 -2.676854
v -11.659651 0.342799 -0.862649
v -11.659651 0.666251 -3.143356
v -11.659651 0.713866 -0.017174
v -11.659651 0.766598 -3.143235
v -11.659651 1.024103 -0.153707
v -11.659651 0.861999 -2.838985
v -11.659651 1.156344 -0.951217
v -13.422436 0.437920 -2.268311
v -13.422436 0.451570 -1.368872
v -13.422436 0.561110 -2.474778
v -13.422392 0.654791 -1.088853
v -13.422436 0.683063 -2.474984
v -13.422436 0.912470 -1.098819
v -13.422436 0.749609 -2.343348
v -13.422436 0.826780 -1.389689
v -15.696574 0.653221 -2.330793
v -15.626339 0.668010 -1.335268
v -15.672769 0.706317 -2.614466
v -15.504447 0.736739 -1.014189
v -15.672769 0.695336 -2.614466
v -15.503826 0.758846 -1.013654
v -15.689441 0.697598 -2.428343
v -15.492321 0.729676 -1.334290
v -12.961523 0.902951 -2.654859
v -12.961523 0.813059 -3.114564
v -12.961523 0.589081 -3.114564
v -12.961523 0.327926 -2.670475
v -12.961523 0.350732 -0.933977
v -12.961523 0.623935 -0.224207
v -12.961523 0.964346 -0.224173
v -12.961523 1.289294 -0.941217
v -14.811869 0.966819 -2.635836
v -14.977216 0.994809 -1.027601
v -15.014254 0.807757 -0.416947
v -15.014859 0.700734 -0.417800
v -14.975096 0.544989 -1.027601
v -14.812939 0.513272 -2.635836
v -15.098963 0.682294 -3.153015
v -15.098963 0.844540 -3.153015
v -14.264757 1.121114 -2.099787
v -14.866388 0.906835 -2.101701
v -15.387746 0.849427 -2.098078
v -15.944196 0.762653 -2.211840
v -15.944328 0.630101 -2.211840
v -15.387880 0.555374 -2.098393
v -14.866579 0.497584 -2.101847
v -14.264757 0.454716 -2.091931
v -12.961523 0.293204 -2.088979
v -11.839679 0.343809 -2.094133
v -11.433747 0.290354 -2.052115
v -11.659651 0.382796 -1.999668
v -13.422436 0.439229 -1.913851
v -15.707058 0.658512 -1.925714
v -15.707058 0.716407 -1.965047
v -15.707058 0.733331 -1.964980
v -15.707058 0.710776 -1.982968
v -13.422436 0.712844 -1.971430
v -11.659651 0.873337 -2.097293
v -11.431804 0.963957 -2.176090
v -11.839679 0.932730 -2.094133
v -12.961523 0.881996 -2.088405
v -12.541043 0.688047 -0.606486
v -13.422436 0.556899 -1.228864
v -13.422436 0.787348 -1.093838
v -14.677072 0.699483 -1.051523
vt 0.375000 0.000000
vt 0.625000 0.000000
vt 0.375000 0.250000
vt 0.625000 0.250000
vt 0.375000 0.500000
vt 0.625000 0.500000
vt 0.375000 0.750000
vt 0.625000 0.750000
vt 0.375000 1.000000
vt 0.625000 1.000000
vt 0.875000 0.000000
vt 0.875000 0.250000
vt 0.125000 0.000000
vt 0.125000 0.250000
vt 0.125000 0.000000
vt 0.375000 0.000000
vt 0.375000 0.250000
vt 0.125000 0.250000
vt 0.625000 0.080361
vt 0.375000 0.080361
vt 0.375000 0.080361
vt 0.125000 0.080361
vt 0.125000 0.080361
vt 0.375000 0.669639
vt 0.625000 0.669639
vt 0.875000 0.080361
vt 0.625000 0.182766
vt 0.375000 0.182766
vt 0.375000 0.182766
vt 0.125000 0.182766
vt 0.125000 0.182766
vt 0.375000 0.567234
vt 0.625000 0.567234
vt 0.875000 0.182766
vt 0.587229 0.250000
vt 0.587229 0.500000
vt 0.587229 0.567234
vt 0.587229 0.669639
vt 0.587229 0.750000
vt 0.587229 0.000000
vt 0.587229 1.000000
vt 0.587229 0.080361
vt 0.587229 0.182766
vt 0.625000 0.000000
vt 0.875000 0.000000
vt 0.875000 0.080361
vt 0.625000 0.080361
vt 0.875000 0.182766
vt 0.625000 0.182766
vt 0.875000 0.250000
vt 0.625000 0.250000
vt 0.625000 0.000000
vt 0.875000 0.000000
vt 0.875000 0.080361
vt 0.625000 0.080361
vt 0.875000 0.182766
vt 0.625000 0.182766
vt 0.875000 0.250000
vt 0.625000 0.250000
vt 0.625000 0.000000
vt 0.875000 0.000000
vt 0.875000 0.080361
vt 0.625000 0.080361
vt 0.875000 0.182766
vt 0.625000 0.182766
vt 0.875000 0.250000
vt 0.625000 0.250000
vt 0.482844 0.500000
vt 0.482844 0.567234
vt 0.482844 0.669639
vt 0.482844 0.750000
vt 0.482844 0.000000
vt 0.482844 1.000000
vt 0.482844 0.080361
vt 0.482844 0.182766
vt 0.482844 0.250000
vt 0.125000 0.250000
vt 0.375000 0.250000
vt 0.375000 0.182766
vt 0.375000 0.080361
vt 0.375000 0.000000
vt 0.125000 0.000000
vt 0.125000 0.080361
vt 0.125000 0.182766
vt 0.224467 0.250000
vt 0.375000 0.400533
vt 0.224467 0.250000
vt 0.224467 0.250000
vt 0.224467 0.182766
vt 0.224467 0.080361
vt 0.224467 0.000000
vt 0.224467 0.000000
vt 0.224467 0.000000
vt 0.375000 0.849467
vt 0.482844 0.849467
vt 0.587229 0.849467
vt 0.625000 0.849467
vt 0.775533 0.000000
vt 0.775533 0.000000
vt 0.775533 0.000000
vt 0.775533 0.000000
vt 0.775533 0.080361
vt 0.775533 0.182766
vt 0.775533 0.250000
vt 0.775533 0.250000
vt 0.775533 0.250000
vt 0.625000 0.400533
vt 0.775533 0.250000
vt 0.587229 0.400533
vt 0.482844 0.400533
vt 0.625000 0.080361
vt 0.625000 0.040181
vt 0.625000 0.131564
vt 0.625000 0.080361
vn -0.110446 -0.923563 0.367196
vn -0.110446 -0.923563 0.367196
vn -0.110446 -0.923563 0.367196
vn -0.110446 -0.923563 0.367196
vn 0.014993 0.986981 -0.160136
vn 0.014993 0.986981 -0.160136
vn 0.014993 0.986981 -0.160136
vn 0.014993 0.986981 -0.160136
vn -0.078815 -0.913808 -0.398426
vn -0.078815 -0.913808 -0.398426
vn -0.078815 -0.913808 -0.398426
vn -0.078815 -0.913808 -0.398426
vn -0.107515 -0.993696 0.031770
vn -0.107515 -0.993696 0.031770
vn -0.107515 -0.993696 0.031770
vn -0.107515 -0.993696 0.031770
vn 0.856080 -0.495264 -0.147784
vn 0.856080 -0.495264 -0.147784
vn 0.856080 -0.495264 -0.147784
vn 0.856080 -0.495264 -0.147784
vn -0.203520 -0.978581 0.030977
vn -0.203520 -0.978581 0.030977
vn -0.203520 -0.978581 0.030977
vn -0.203520 -0.978581 0.030977
vn -0.089972 -0.995645 0.024399
vn -0.089972 -0.995645 0.024399
vn -0.089972 -0.995645 0.024399
vn -0.089972 -0.995645 0.024399
vn -0.053789 -0.952437 0.299950
vn -0.053789 -0.952437 0.299950
vn -0.053789 -0.952437 0.299950
vn -0.053789 -0.952437 0.299950
vn -0.228499 0.972832 -0.037234
vn -0.228499 0.972832 -0.037234
vn -0.228499 0.972832 -0.037234
vn -0.228499 0.972832 -0.037234
vn -0.043043 -0.953891 -0.297051
vn -0.043043 -0.953891 -0.297051
vn -0.043043 -0.953891 -0.297051
vn -0.043043 -0.953891 -0.297051
vn -0.221802 -0.000057 0.975092
vn -0.221802 -0.000057 0.975092
vn -0.221802 -0.000057 0.975092
vn -0.221802 -0.000057 0.975092
vn 0.078663 -0.002573 0.996898
vn 0.078663 -0.002573 0.996898
vn 0.078663 -0.002573 0.996898
vn 0.078663 -0.002573 0.996898
vn -0.979132 -0.000051 0.203223
vn -0.979132 -0.000051 0.203223
vn -0.979133 -0.000051 0.203223
vn -0.979132 -0.000051 0.203223
vn -0.088729 -0.000028 -0.996056
vn -0.088729 -0.000028 -0.996056
vn -0.088729 -0.000028 -0.996056
vn -0.088729 -0.000028 -0.996056
vn 0.148304 0.000041 -0.988942
vn 0.148304 0.000041 -0.988942
vn 0.148304 0.000041 -0.988942
vn 0.148304 0.000041 -0.988942
vn 0.977975 -0.012330 -0.208359
vn 0.977975 -0.012330 -0.208359
vn 0.977975 -0.012330 -0.208359
vn 0.977975 -0.012330 -0.208359
vn -0.152724 0.913878 0.376168
vn -0.152724 0.913878 0.376168
vn -0.152724 0.913878 0.376168
vn -0.152723 0.913878 0.376168
vn -0.093481 0.949553 0.299350
vn -0.093481 0.949553 0.299350
vn -0.093481 0.949553 0.299350
vn -0.093481 0.949553 0.299350
vn -0.239078 0.970867 0.016082
vn -0.239078 0.970867 0.016082
vn -0.239078 0.970867 0.016082
vn -0.239078 0.970867 0.016082
vn -0.090997 0.970354 -0.223903
vn -0.090997 0.970354 -0.223903
vn -0.090997 0.970354 -0.223903
vn -0.090997 0.970354 -0.223903
vn 0.125547 0.973175 -0.192789
vn 0.125547 0.973175 -0.192789
vn 0.125547 0.973175 -0.192789
vn 0.125546 0.973175 -0.192789
vn -0.386764 -0.913476 0.126392
vn -0.386764 -0.913476 0.126392
vn -0.386764 -0.913476 0.126392
vn -0.386764 -0.913476 0.126392
vn -0.044892 0.968640 -0.244381
vn -0.044892 0.968640 -0.244381
vn -0.044892 0.968640 -0.244381
vn -0.044892 0.968640 -0.244381
vn -0.151232 0.971820 -0.180817
vn -0.151232 0.971820 -0.180817
vn -0.151232 0.971820 -0.180817
vn -0.151232 0.971820 -0.180817
vn -0.106152 0.000000 -0.994350
vn -0.106152 0.000000 -0.994350
vn -0.106152 0.000000 -0.994350
vn -0.106152 0.000000 -0.994350
vn -0.030210 -0.933746 -0.356660
vn -0.030210 -0.933746 -0.356660
vn -0.030210 -0.933746 -0.356660
vn -0.030210 -0.933746 -0.356660
vn -0.207801 -0.977872 -0.024177
vn -0.207801 -0.977872 -0.024177
vn -0.207801 -0.977872 -0.024177
vn -0.207801 -0.977872 -0.024177
vn -0.331314 -0.862513 0.382496
vn -0.331314 -0.862513 0.382496
vn -0.331314 -0.862513 0.382496
vn -0.331314 -0.862513 0.382496
vn -0.454735 0.333749 0.825729
vn -0.454735 0.333749 0.825729
vn -0.454735 0.333749 0.825729
vn -0.454735 0.333749 0.825729
vn -0.174032 0.952987 0.248050
vn -0.174032 0.952987 0.248050
vn -0.174032 0.952987 0.248050
vn -0.174032 0.952987 0.248050
vn 0.417071 0.908029 0.039174
vn 0.417071 0.908029 0.039174
vn 0.417071 0.908029 0.039174
vn 0.417071 0.908029 0.039174
vn 0.525373 0.801962 0.284323
vn 0.525373 0.801962 0.284323
vn 0.525373 0.801962 0.284323
vn 0.525373 0.801962 0.284323
vn 0.590203 0.736343 -0.330846
vn 0.590203 0.736343 -0.330846
vn 0.590203 0.736343 -0.330846
vn 0.590203 0.736343 -0.330846
vn 0.801336 -0.000232 0.598215
vn 0.801336 -0.000232 0.598215
vn 0.801335 -0.000232 0.598215
vn 0.801336 -0.000232 0.598215
vn 0.729775 -0.268209 -0.628882
vn 0.729774 -0.268209 -0.628882
vn 0.729774 -0.268209 -0.628882
vn 0.729774 -0.268209 -0.628882
vn 0.655451 -0.708846 0.260616
vn 0.655451 -0.708846 0.260616
vn 0.655451 -0.708846 0.260616
vn 0.655451 -0.708846 0.260616
vn 0.386075 -0.897587 0.212798
vn 0.386075 -0.897587 0.212798
vn 0.386075 -0.897587 0.212798
vn 0.386075 -0.897587 0.212798
vn 0.487759 -0.856862 -0.166966
vn 0.487759 -0.856862 -0.166966
vn 0.487759 -0.856862 -0.166966
vn 0.487759 -0.856862 -0.166966
vn 0.044847 0.998859 0.016424
vn 0.044847 0.998859 0.016424
vn 0.044847 0.998859 0.016424
vn 0.044847 0.998859 0.016424
vn 0.068103 0.923255 0.378105
vn 0.068103 0.923255 0.378105
vn 0.068103 0.923255 0.378105
vn 0.068103 0.923255 0.378105
vn 0.272058 0.788597 -0.551452
vn 0.272058 0.788597 -0.551452
vn 0.272058 0.788597 -0.551453
vn 0.354532 0.000360 0.935044
vn 0.354532 0.000360 0.935044
vn 0.354532 0.000360 0.935044
vn 0.354532 0.000360 0.935044
vn 0.480797 -0.032789 -0.876219
vn 0.480797 -0.032789 -0.876218
vn 0.480797 -0.032789 -0.876218
vn 0.164785 -0.924578 0.343514
vn 0.164785 -0.924578 0.343514
vn 0.164785 -0.924578 0.343514
vn 0.164785 -0.924578 0.343514
vn 0.114853 -0.968162 0.222422
vn 0.114853 -0.968162 0.222422
vn 0.114853 -0.968162 0.222422
vn 0.114853 -0.968162 0.222422
vn 0.140393 -0.989192 -0.042308
vn 0.140393 -0.989191 -0.042308
vn 0.140393 -0.989191 -0.042308
vn 0.140393 -0.989192 -0.042308
vn 0.096463 0.994997 -0.025995
vn 0.096463 0.994997 -0.025995
vn 0.096463 0.994997 -0.025995
vn 0.096463 0.994997 -0.025995
vn 0.059560 0.938393 0.340399
vn 0.059560 0.938393 0.340399
vn 0.059560 0.938393 0.340399
vn 0.059560 0.938393 0.340399
vn 0.012143 0.819487 -0.572969
vn 0.012143 0.819487 -0.572969
vn 0.012143 0.819487 -0.572969
vn -0.061845 0.001853 0.998084
vn -0.061845 0.001853 0.998084
vn -0.061845 0.001853 0.998084
vn -0.061845 0.001853 0.998084
vn -0.031056 -0.037567 -0.998811
vn -0.031056 -0.037567 -0.998811
vn -0.031056 -0.037567 -0.998811
vn -0.001914 -0.977367 0.211543
vn -0.001914 -0.977367 0.211543
vn -0.001914 -0.977367 0.211543
vn -0.001914 -0.977367 0.211543
vn 0.023686 -0.994377 0.103218
vn 0.023686 -0.994377 0.103218
vn 0.023686 -0.994377 0.103218
vn 0.023686 -0.994377 0.103218
vn 0.065496 -0.980478 0.185398
vn 0.065496 -0.980478 0.185398
vn 0.065496 -0.980478 0.185398
vn 0.065496 -0.980478 0.185398
vn -0.047636 0.993268 -0.105592
vn -0.047636 0.993268 -0.105592
vn -0.047636 0.993268 -0.105592
vn -0.047636 0.993268 -0.105592
vn -0.248652 0.000000 -0.968593
vn -0.248652 0.000000 -0.968593
vn -0.248652 0.000000 -0.968593
vn -0.248652 0.000000 -0.968593
vn -0.031740 -0.902057 -0.430449
vn -0.031740 -0.902056 -0.430449
vn -0.031740 -0.902057 -0.430449
vn -0.031740 -0.902056 -0.430449
vn 0.019174 -0.999516 0.024505
vn 0.019174 -0.999516 0.024505
vn 0.019174 -0.999516 0.024505
vn 0.019174 -0.999516 0.024505
vn -0.031353 -0.925725 0.376895
vn -0.031353 -0.925725 0.376895
vn -0.031353 -0.925725 0.376895
vn -0.031353 -0.925725 0.376895
vn -0.166508 0.183449 0.968825
vn -0.166508 0.183449 0.968825
vn -0.166507 0.183449 0.968825
vn -0.166508 0.183449 0.968825
vn -0.039622 0.935674 0.350634
vn -0.039622 0.935674 0.350634
vn -0.039622 0.935674 0.350634
vn -0.039622 0.935674 0.350634
vn -0.007390 0.953276 -0.302012
vn -0.007390 0.953276 -0.302012
vn -0.007390 0.953276 -0.302012
vn -0.007390 0.953276 -0.302012
vn -0.183751 0.980968 -0.062756
vn -0.183751 0.980968 -0.062756
vn -0.183751 0.980968 -0.062756
vn -0.183751 0.980968 -0.062756
vn -0.121235 0.971085 0.205662
vn -0.121235 0.971085 0.205662
vn -0.121235 0.971085 0.205662
vn -0.121235 0.971085 0.205662
vn 0.124926 -0.006740 0.992143
vn 0.124926 -0.006740 0.992143
vn 0.124926 -0.006740 0.992143
vn 0.124926 -0.006740 0.992143
vn 0.077131 -0.974329 0.211506
vn 0.077131 -0.974329 0.211506
vn 0.077131 -0.974329 0.211506
vn 0.077131 -0.974329 0.211506
vn -0.066725 -0.997642 0.016046
vn -0.066725 -0.997642 0.016046
vn -0.066725 -0.997642 0.016046
vn -0.066725 -0.997642 0.016046
vn 0.080581 -0.938991 -0.334368
vn 0.080581 -0.938991 -0.334368
vn 0.080581 -0.938991 -0.334368
vn 0.080581 -0.938991 -0.334368
vn 0.362722 0.000000 -0.931897
vn 0.362722 0.000000 -0.931897
vn 0.362722 0.000000 -0.931897
vn 0.362722 0.000000 -0.931897
vn -0.122413 0.988394 -0.089956
vn -0.122413 0.988394 -0.089956
vn -0.122413 0.988394 -0.089956
vn -0.122413 0.988394 -0.089956
vn -0.230421 0.972067 -0.044622
vn -0.230421 0.972067 -0.044622
vn -0.230421 0.972067 -0.044622
vn -0.230421 0.972067 -0.044622
vn -0.178601 0.983642 0.023467
vn -0.178601 0.983642 0.023467
vn -0.178601 0.983642 0.023467
vn -0.178601 0.983642 0.023467
vn -0.141534 0.989837 -0.013794
vn -0.141534 0.989837 -0.013794
vn -0.141534 0.989837 -0.013794
vn -0.141534 0.989837 -0.013794
vn -0.997183 0.000709 -0.074998
vn -0.997183 0.000709 -0.074998
vn -0.997183 0.000709 -0.074998
vn -0.997183 0.000709 -0.074998
vn -0.167678 -0.984183 -0.057159
vn -0.167678 -0.984183 -0.057159
vn -0.167678 -0.984183 -0.057159
vn -0.167678 -0.984183 -0.057159
vn -0.097645 -0.994868 -0.026521
vn -0.097645 -0.994868 -0.026521
vn -0.097645 -0.994868 -0.026521
vn -0.097645 -0.994868 -0.026521
vn -0.065566 -0.996995 -0.041252
vn -0.065566 -0.996995 -0.041252
vn -0.065566 -0.996995 -0.041252
vn -0.065566 -0.996995 -0.041252
vn -0.123465 -0.990469 -0.061054
vn -0.123465 -0.990469 -0.061054
vn -0.123465 -0.990469 -0.061054
vn -0.123465 -0.990469 -0.061054
vn 0.058762 -0.994476 -0.086974
vn 0.058762 -0.994476 -0.086974
vn 0.058762 -0.994476 -0.086974
vn 0.058762 -0.994476 -0.086974
vn -0.065766 -0.988758 -0.134283
vn -0.065766 -0.988758 -0.134283
vn -0.065766 -0.988758 -0.134283
vn -0.065766 -0.988758 -0.134283
vn 0.444153 0.882431 0.155060
vn 0.444153 0.882431 0.155060
vn 0.444153 0.882431 0.155060
vn 0.444153 0.882431 0.155060
vn 0.012011 0.992114 0.124760
vn 0.012011 0.992114 0.124760
vn 0.012011 0.992114 0.124760
vn 0.012011 0.992114 0.124760
vn 0.095015 0.995449 -0.007339
vn 0.095015 0.995449 -0.007339
vn 0.095015 0.995449 -0.007339
vn 0.095015 0.995449 -0.007339
vn 0.995275 -0.086793 0.043525
vn 0.995275 -0.086793 0.043525
vn 0.995275 -0.086793 0.043525
vn 0.995275 -0.086793 0.043525
vn 0.998608 -0.000591 0.052746
vn 0.998608 -0.000591 0.052746
vn 0.998608 -0.000591 0.052746
vn 0.998608 -0.000591 0.052746
vn -0.953734 0.294805 -0.058994
vn -0.953734 0.294805 -0.058994
vn -0.953734 0.294805 -0.058994
vn -0.953734 0.294805 -0.058994
vn 0.012481 -0.999514 -0.028577
vn 0.012481 -0.999514 -0.028577
vn 0.012481 -0.999514 -0.028577
vn 0.012481 -0.999514 -0.028577
vn 0.073160 -0.997060 -0.022766
vn 0.073160 -0.997060 -0.022766
vn 0.073160 -0.997060 -0.022766
vn 0.073160 -0.997060 -0.022766
vn 0.445058 -0.895372 -0.015259
vn 0.445058 -0.895372 -0.015259
vn 0.445058 -0.895372 -0.015259
vn 0.445058 -0.895372 -0.015259
vn -0.168401 0.985719 0.000134
vn -0.168401 0.985719 0.000134
vn -0.168401 0.985719 0.000134
vn -0.168401 0.985719 0.000134
vn -0.019988 0.999714 -0.013104
vn -0.019988 0.999714 -0.013104
vn -0.019988 0.999714 -0.013104
vn -0.019988 0.999714 -0.013104
vn 0.159472 0.987110 -0.013553
vn 0.159472 0.987110 -0.013553
vn 0.159472 0.987110 -0.013553
vn 0.159472 0.987109 -0.013553
vn 0.059171 0.918852 -0.390141
vn 0.059171 0.918852 -0.390141
vn 0.059171 0.918852 -0.390141
vn 0.059171 0.918852 -0.390141
vn 0.059171 0.918852 -0.390141
vn -0.038798 0.006161 -0.999228
vn -0.038798 0.006161 -0.999228
vn -0.038798 0.006161 -0.999228
vn -0.038798 0.006161 -0.999228
vn -0.038798 0.006161 -0.999228
vn 0.499153 -0.155014 -0.852536
vn 0.499153 -0.155014 -0.852536
vn 0.499153 -0.155014 -0.852536
vn 0.499153 -0.155014 -0.852536
vn 0.499153 -0.155014 -0.852536
vn 0.218233 0.862991 -0.455655
vn 0.218233 0.862991 -0.455655
vn 0.218233 0.862991 -0.455655
vn 0.218233 0.862991 -0.455655
vn 0.218233 0.862991 -0.455655
s off
g pasted__pCube3 group
usemtl initialShadingGroup
f 1/1/1 61/72/2 62/74/3 14/20/4
f 3/3/5 64/76/6 94/110/7 73/86/8
f 17/24/9 59/70/10 60/71/11 7/7/12
f 80/94/13 81/95/14 61/73/15 1/9/16
f 50/60/17 86/101/18 87/102/19 52/63/20
f 78/91/21 10/16/22 15/21/23 77/90/24
f 80/93/25 1/1/26 69/81/27 79/92/28
f 1/1/29 14/20/30 68/80/31 69/81/32
f 3/3/33 73/85/34 74/87/35 66/78/36
f 17/23/37 7/13/38 70/82/39 71/83/40
f 14/20/41 62/74/42 63/75/43 20/28/44
f 68/80/45 14/20/46 20/28/47 67/79/48
f 77/90/49 15/21/50 21/29/51 76/89/52
f 23/31/53 17/23/54 71/83/55 72/84/56
f 23/32/57 58/69/58 59/70/59 17/24/60
f 52/63/61 87/102/62 88/103/63 54/65/64
f 20/28/65 63/75/66 64/76/67 3/3/68
f 67/79/69 20/28/70 3/3/71 66/78/72
f 76/89/73 21/29/74 11/17/75 75/88/76
f 5/14/77 23/31/78 72/84/79 65/77/80
f 5/5/81 57/68/82 58/69/83 23/32/84
f 54/65/85 88/103/86 89/104/87 56/67/88
f 25/35/89 4/4/90 92/107/91 93/109/92
f 27/37/93 26/36/94 6/6/95 24/33/96
f 28/38/97 27/37/98 24/33/99 18/25/100
f 29/39/101 28/38/102 18/25/103 8/8/104
f 30/41/105 82/96/106 83/97/107 2/10/108
f 31/42/109 30/40/110 2/2/111 13/19/112
f 32/43/113 31/42/114 13/19/115 19/27/116
f 25/35/117 32/43/118 19/27/119 4/4/120
f 2/2/121 83/98/122 84/99/123 34/44/124
f 8/11/125 18/26/126 35/46/127 33/45/128
f 13/19/129 2/2/130 34/44/131 36/47/132
f 18/26/133 24/34/134 37/48/135 35/46/136
f 19/27/137 13/19/138 36/47/139 38/49/140
f 24/34/141 6/12/142 39/50/143 37/48/144
f 92/108/145 4/4/146 40/51/147 91/106/148
f 4/4/149 19/27/150 38/49/151 40/51/152
f 34/44/153 84/99/154 85/100/155 42/52/156
f 33/45/157 35/46/158 43/54/159 41/53/160
f 95/111/161 96/112/162 44/55/163
f 35/46/164 37/48/165 45/56/166 43/54/167
f 97/113/168 95/111/169 44/55/170
f 37/48/171 39/50/172 47/58/173 45/56/174
f 91/106/175 40/51/176 48/59/177 90/105/178
f 40/51/179 38/49/180 46/57/181 48/59/182
f 42/52/183 85/100/184 86/101/185 50/60/186
f 41/53/187 43/54/188 51/62/189 49/61/190
f 44/55/191 96/112/192 98/114/193
f 43/54/194 45/56/195 53/64/196 51/62/197
f 98/114/198 97/113/199 44/55/200
f 45/56/201 47/58/202 55/66/203 53/64/204
f 90/105/205 48/59/206 56/67/207 89/104/208
f 48/59/209 46/57/210 54/65/211 56/67/212
f 57/68/213 26/36/214 27/37/215 58/69/216
f 59/70/217 58/69/218 27/37/219 28/38/220
f 60/71/221 59/70/222 28/38/223 29/39/224
f 61/73/225 81/95/226 82/96/227 30/41/228
f 62/74/229 61/72/230 30/40/231 31/42/232
f 63/75/233 62/74/234 31/42/235 32/43/236
f 64/76/237 63/75/238 32/43/239 25/35/240
f 94/110/241 64/76/242 25/35/243 93/109/244
f 66/78/245 74/87/246 75/88/247 11/17/248
f 21/29/249 67/79/250 66/78/251 11/17/252
f 15/21/253 68/80/254 67/79/255 21/29/256
f 69/81/257 68/80/258 15/21/259 10/16/260
f 79/92/261 69/81/262 10/16/263 78/91/264
f 71/83/265 70/82/266 9/15/267 16/22/268
f 72/84/269 71/83/270 16/22/271 22/30/272
f 65/77/273 72/84/274 22/30/275 12/18/276
f 73/85/277 5/14/278 65/77/279 74/87/280
f 75/88/281 74/87/282 65/77/283 12/18/284
f 22/30/285 76/89/286 75/88/287 12/18/288
f 16/22/289 77/90/290 76/89/291 22/30/292
f 9/15/293 78/91/294 77/90/295 16/22/296
f 70/82/297 79/92/298 78/91/299 9/15/300
f 7/13/301 80/93/302 79/92/303 70/82/304
f 7/7/305 60/71/306 81/95/307 80/94/308
f 82/96/309 81/95/310 60/71/311 29/39/312
f 83/97/313 82/96/314 29/39/315 8/8/316
f 84/99/317 83/98/318 8/11/319 33/45/320
f 85/100/321 84/99/322 33/45/323 41/53/324
f 86/101/325 85/100/326 41/53/327 49/61/328
f 87/102/329 86/101/330 49/61/331 51/62/332
f 88/103/333 87/102/334 51/62/335 53/64/336
f 89/104/337 88/103/338 53/64/339 55/66/340
f 47/58/341 90/105/342 89/104/343 55/66/344
f 39/50/345 91/106/346 90/105/347 47/58/348
f 6/12/349 92/108/350 91/106/351 39/50/352
f 93/109/353 92/107/354 6/6/355 26/36/356
f 57/68/357 94/110/358 93/109/359 26/36/360
f 73/86/361 94/110/362 57/68/363 5/5/364
f 98/114/365 96/112/366 42/52/367 50/60/368 52/63/369
f 46/57/370 97/113/371 98/114/372 52/63/373 54/65/374
f 38/49/375 36/47/376 95/111/377 97/113/378 46/57/379
f 36/47/380 34/44/381 42/52/382 96/112/383 95/111/384
