# This file uses centimeters as units for non-parametric coordinates.

mtllib newspaper.mtl
g default
v 11.231661 1.036843 1.492956
v 11.689003 1.036843 1.492956
v 11.015106 1.890627 1.492956
v 11.435597 1.682725 1.492956
v 11.015106 1.890627 -2.133437
v 11.435597 1.682725 -2.133437
v 11.231661 1.036843 -2.133437
v 11.689003 1.036843 -2.133437
v 10.909712 1.036843 -2.133437
v 10.909712 1.036843 1.492956
v 10.780603 1.973224 1.492956
v 10.780603 1.973224 -2.133437
v 10.662430 1.036843 -2.133437
v 10.662430 1.036843 1.492956
v 10.535694 1.985845 1.492956
v 10.535694 1.985845 -2.133437
v 10.244467 1.089676 -2.133437
v 10.244467 1.089676 1.492956
v 10.276232 1.848477 1.492956
v 10.276232 1.848477 -2.133437
v 10.123879 1.256102 -2.133437
v 10.123879 1.256102 1.492956
v 10.137151 1.645068 1.492956
v 10.137151 1.645068 -2.133437
v 12.318767 1.036843 -2.133437
v 12.318767 1.036843 1.492956
v 12.030561 1.372843 -2.133437
v 12.030561 1.503091 1.492956
v 12.861875 1.027864 -2.133437
v 12.861875 1.036843 1.492956
v 12.687461 1.317367 -2.133437
v 12.687461 1.447616 1.492956
v 13.443966 1.024877 -2.133437
v 13.443966 1.036843 1.492956
v 13.335305 1.342073 -2.133437
v 13.335305 1.408435 1.492956
v 13.918978 1.102596 -2.133437
v 13.918978 1.102596 1.492956
v 13.744563 1.501658 -2.133437
v 13.744563 1.510503 1.492956
v 14.096789 1.203159 -2.133437
v 14.096789 1.203159 1.492956
v 14.173270 1.743906 -2.133437
v 14.173270 1.743906 1.492956
v 11.307460 1.072589 1.624204
v 11.741848 1.072589 1.624204
v 11.501161 1.600989 1.624204
v 11.101775 1.771074 1.624204
v 10.879041 1.838647 1.624204
v 11.001670 1.072589 1.624204
v 10.646424 1.848972 1.624204
v 10.766799 1.072589 1.624204
v 10.399984 1.736591 1.624204
v 10.369814 1.115813 1.624204
v 10.267884 1.570181 1.624204
v 10.255277 1.251966 1.624204
v 12.340005 1.072589 1.624204
v 12.066265 1.454029 1.624204
v 12.855855 1.072589 1.624204
v 12.690194 1.408645 1.624204
v 13.408731 1.072589 1.624204
v 13.305523 1.376591 1.624204
v 13.859902 1.126382 1.624204
v 13.694241 1.479975 1.624204
v 14.028789 1.208654 1.624204
v 14.108394 1.709156 1.624204
v 11.093177 1.733495 -2.241420
v 11.495743 1.576090 -2.241420
v 11.738346 1.087082 -2.241420
v 11.300500 1.087082 -2.241420
v 10.992276 1.087082 -2.241420
v 10.868670 1.796031 -2.241420
v 10.755535 1.087082 -2.241420
v 10.634201 1.805586 -2.241420
v 10.355389 1.127083 -2.241420
v 10.385800 1.701583 -2.241420
v 10.239941 1.253087 -2.241420
v 10.252648 1.547579 -2.241420
v 12.065345 1.339848 -2.241420
v 12.341265 1.087082 -2.241420
v 12.694241 1.295867 -2.241420
v 12.861221 1.075953 -2.241420
v 13.314468 1.316516 -2.241420
v 13.418498 1.073243 -2.241420
v 13.706280 1.452590 -2.241420
v 13.873260 1.136864 -2.241420
v 14.123730 1.676193 -2.241420
v 14.043491 1.213003 -2.241420
vt 0.375000 0.000000
vt 0.625000 0.000000
vt 0.375000 0.250000
vt 0.625000 0.250000
vt 0.375000 0.500000
vt 0.625000 0.500000
vt 0.375000 0.750000
vt 0.625000 0.750000
vt 0.375000 1.000000
vt 0.625000 1.000000
vt 0.875000 0.000000
vt 0.875000 0.250000
vt 0.125000 0.000000
vt 0.125000 0.250000
vt 0.125000 0.000000
vt 0.375000 0.000000
vt 0.375000 0.250000
vt 0.125000 0.250000
vt 0.125000 0.000000
vt 0.375000 0.000000
vt 0.375000 0.250000
vt 0.125000 0.250000
vt 0.125000 0.000000
vt 0.375000 0.000000
vt 0.375000 0.250000
vt 0.125000 0.250000
vt 0.125000 0.000000
vt 0.375000 0.000000
vt 0.375000 0.250000
vt 0.125000 0.250000
vt 0.625000 0.000000
vt 0.875000 0.000000
vt 0.875000 0.250000
vt 0.625000 0.250000
vt 0.625000 0.000000
vt 0.875000 0.000000
vt 0.875000 0.250000
vt 0.625000 0.250000
vt 0.625000 0.000000
vt 0.875000 0.000000
vt 0.875000 0.250000
vt 0.625000 0.250000
vt 0.625000 0.000000
vt 0.875000 0.000000
vt 0.875000 0.250000
vt 0.625000 0.250000
vt 0.625000 0.000000
vt 0.875000 0.000000
vt 0.875000 0.250000
vt 0.625000 0.250000
vt 0.375000 0.000000
vt 0.625000 0.000000
vt 0.625000 0.250000
vt 0.375000 0.250000
vt 0.375000 0.500000
vt 0.625000 0.500000
vt 0.625000 0.750000
vt 0.375000 0.750000
vt 0.375000 0.250000
vt 0.375000 0.000000
vt 0.125000 0.000000
vt 0.125000 0.000000
vt 0.125000 0.250000
vt 0.125000 0.250000
vt 0.375000 0.250000
vt 0.375000 0.000000
vt 0.125000 0.000000
vt 0.125000 0.250000
vt 0.375000 0.250000
vt 0.375000 0.000000
vt 0.125000 0.000000
vt 0.125000 0.250000
vt 0.375000 0.250000
vt 0.375000 0.000000
vt 0.125000 0.000000
vt 0.125000 0.250000
vt 0.875000 0.250000
vt 0.875000 0.250000
vt 0.875000 0.000000
vt 0.875000 0.000000
vt 0.625000 0.000000
vt 0.625000 0.250000
vt 0.875000 0.250000
vt 0.875000 0.000000
vt 0.625000 0.000000
vt 0.625000 0.250000
vt 0.875000 0.250000
vt 0.875000 0.000000
vt 0.625000 0.000000
vt 0.625000 0.250000
vt 0.875000 0.250000
vt 0.875000 0.000000
vt 0.625000 0.000000
vt 0.625000 0.250000
vt 0.875000 0.250000
vt 0.875000 0.000000
vt 0.625000 0.000000
vt 0.625000 0.250000
vn -0.000000 -0.222127 0.975018
vn -0.000000 -0.265419 0.964133
vn 0.076819 0.235334 0.968874
vn 0.091641 0.210056 0.973385
vn 0.403993 0.914601 0.017165
vn 0.405730 0.913983 0.004291
vn 0.407138 0.912953 -0.027482
vn 0.403893 0.914452 -0.025463
vn 0.073096 0.174356 -0.981966
vn 0.105816 0.228505 -0.967775
vn 0.000000 -0.254825 -0.966987
vn 0.000000 -0.191853 -0.981424
vn 0.000000 -0.999923 -0.012430
vn 0.000000 -0.999920 -0.012665
vn 0.000000 -0.999960 0.008946
vn 0.000000 -0.999961 0.008777
vn 0.929957 -0.367338 0.015588
vn 0.929689 -0.368165 -0.011545
vn 0.651638 0.758380 -0.015094
vn 0.655349 0.755181 0.014800
vn -0.981670 -0.188898 -0.025338
vn -0.981629 -0.188558 0.029150
vn -0.967672 0.250288 0.031094
vn -0.967558 0.250996 -0.028847
vn 0.000000 -0.999961 0.008836
vn 0.000000 -0.999922 -0.012525
vn 0.038322 0.162278 0.986001
vn 0.000000 -0.192715 0.981255
vn 0.192855 0.980431 -0.039511
vn 0.192555 0.980848 0.029310
vn -0.000000 -0.166989 -0.985959
vn 0.029929 0.135033 -0.990389
vn -0.079717 -0.996745 0.012038
vn -0.079514 -0.996715 -0.015388
vn -0.028313 0.165232 0.985848
vn -0.009151 -0.185349 0.982630
vn -0.240375 0.969719 -0.043175
vn -0.241420 0.969741 0.036318
vn -0.007657 -0.161138 -0.986902
vn -0.024616 0.136709 -0.990305
vn -0.380084 -0.924816 0.015876
vn -0.379055 -0.925243 -0.015550
vn -0.107294 0.139718 0.984361
vn -0.077735 -0.283005 0.955963
vn -0.648143 0.760422 -0.040857
vn -0.649004 0.759901 0.036667
vn -0.066366 -0.247866 -0.966519
vn -0.090687 0.118535 -0.988800
vn -0.401045 0.102328 0.910325
vn -0.406391 -0.103806 0.907783
vn -0.369128 -0.099061 -0.924084
vn -0.363253 0.088262 -0.927501
vn -0.003937 -0.999912 -0.012662
vn -0.003696 -0.999944 0.009901
vn 0.063843 0.291521 -0.954432
vn -0.003305 -0.335059 -0.942191
vn 0.232390 0.972528 -0.013602
vn 0.233954 0.971586 -0.035878
vn 0.000000 -0.303684 0.952773
vn 0.043145 0.277473 0.959764
vn -0.005496 -0.999927 -0.010733
vn -0.005135 -0.999923 0.011310
vn 0.007743 0.411220 -0.911503
vn -0.004072 -0.346115 -0.938183
vn 0.048734 0.998608 -0.020183
vn 0.047260 0.998195 -0.037059
vn -0.000000 -0.324592 0.945854
vn 0.023783 0.352982 0.935328
vn 0.066512 -0.997738 -0.009740
vn 0.066353 -0.997732 0.011279
vn -0.047360 0.331812 -0.942156
vn 0.019949 -0.351609 -0.935935
vn -0.115309 0.993253 -0.012379
vn -0.117677 0.992704 -0.026283
vn 0.017798 -0.366197 0.930367
vn -0.013763 0.320914 0.947008
vn 0.255438 -0.966780 -0.009364
vn 0.255503 -0.966757 0.009965
vn -0.124436 0.285693 -0.950208
vn 0.063647 -0.281491 -0.957451
vn -0.402865 0.915255 -0.003062
vn -0.403676 0.914813 -0.012797
vn 0.066854 -0.323136 0.943988
vn -0.117617 0.319247 0.940344
vn 0.287762 0.370172 -0.883270
vn 0.310318 -0.149062 -0.938874
vn 0.337116 -0.159195 0.927906
vn 0.299125 0.444053 0.844596
s 1
g pasted__pCube1 group
usemtl initialShadingGroup
f 45/51/1 46/52/2 47/53/3 48/54/4
f 3/3/5 4/4/6 6/6/7 5/5/8
f 67/55/9 68/56/10 69/57/11 70/58/12
f 7/7/13 8/8/14 2/10/15 1/9/16
f 42/47/17 41/48/18 43/49/19 44/50/20
f 21/27/21 22/28/22 23/29/23 24/30/24
f 7/13/13 1/1/16 10/16/25 9/15/26
f 45/51/1 48/54/4 49/59/27 50/60/28
f 3/3/5 5/14/8 12/18/29 11/17/30
f 67/64/9 70/61/12 71/62/31 72/63/32
f 9/15/26 10/16/25 14/20/33 13/19/34
f 50/60/28 49/59/27 51/65/35 52/66/36
f 11/17/30 12/18/29 16/22/37 15/21/38
f 72/63/32 71/62/31 73/67/39 74/68/40
f 13/19/34 14/20/33 18/24/41 17/23/42
f 52/66/36 51/65/35 53/69/43 54/70/44
f 15/21/38 16/22/37 20/26/45 19/25/46
f 74/68/40 73/67/39 75/71/47 76/72/48
f 17/23/42 18/24/41 22/28/22 21/27/21
f 54/70/44 53/69/43 55/73/49 56/74/50
f 19/25/46 20/26/45 24/30/24 23/29/23
f 76/72/48 75/71/47 77/75/51 78/76/52
f 2/2/15 8/11/14 25/32/53 26/31/54
f 69/80/11 68/77/10 79/78/55 80/79/56
f 6/12/7 4/4/6 28/34/57 27/33/58
f 47/53/3 46/52/2 57/81/59 58/82/60
f 26/31/54 25/32/53 29/36/61 30/35/62
f 80/79/56 79/78/55 81/83/63 82/84/64
f 27/33/58 28/34/57 32/38/65 31/37/66
f 58/82/60 57/81/59 59/85/67 60/86/68
f 30/35/62 29/36/61 33/40/69 34/39/70
f 82/84/64 81/83/63 83/87/71 84/88/72
f 31/37/66 32/38/65 36/42/73 35/41/74
f 60/86/68 59/85/67 61/89/75 62/90/76
f 34/39/70 33/40/69 37/44/77 38/43/78
f 84/88/72 83/87/71 85/91/79 86/92/80
f 35/41/74 36/42/73 40/46/81 39/45/82
f 62/90/76 61/89/75 63/93/83 64/94/84
f 38/43/78 37/44/77 41/48/18 42/47/17
f 86/92/80 85/91/79 87/95/85 88/96/86
f 39/45/82 40/46/81 44/50/20 43/49/19
f 64/94/84 63/93/83 65/97/87 66/98/88
f 1/1/16 2/2/15 46/52/2 45/51/1
f 4/4/6 3/3/5 48/54/4 47/53/3
f 3/5/5 11/6/30 49/56/27 48/55/4
f 10/8/25 1/7/16 45/58/1 50/57/28
f 11/3/30 15/17/38 51/59/35 49/54/27
f 14/16/33 10/1/25 50/51/28 52/60/36
f 15/13/38 19/15/46 53/62/43 51/61/35
f 18/18/41 14/14/33 52/64/36 54/63/44
f 19/17/46 23/21/23 55/65/49 53/59/43
f 23/20/23 22/16/22 56/60/50 55/66/49
f 22/15/22 18/19/41 54/67/44 56/62/50
f 2/22/15 26/18/54 57/63/59 46/68/2
f 28/21/57 4/25/6 47/69/3 58/65/60
f 26/24/54 30/20/62 59/66/67 57/70/59
f 32/19/65 28/23/57 58/71/60 60/67/68
f 30/26/62 34/22/70 61/68/75 59/72/67
f 36/25/73 32/29/65 60/73/68 62/69/76
f 34/29/70 38/28/78 63/74/83 61/73/75
f 40/28/81 36/24/73 62/70/76 64/74/84
f 38/23/78 42/27/17 65/75/87 63/71/83
f 42/27/17 44/30/20 66/76/88 65/75/87
f 44/30/20 40/26/81 64/72/84 66/76/88
f 5/12/8 6/33/7 68/78/10 67/77/9
f 8/32/14 7/11/13 70/80/12 69/79/11
f 7/2/13 9/31/26 71/81/31 70/52/12
f 12/34/29 5/4/8 67/53/9 72/82/32
f 9/33/26 13/37/34 73/83/39 71/78/31
f 16/36/37 12/32/29 72/79/32 74/84/40
f 13/31/34 17/35/42 75/85/47 73/81/39
f 20/38/45 16/34/37 74/82/40 76/86/48
f 17/37/42 21/41/21 77/87/51 75/83/47
f 21/40/21 24/36/24 78/84/52 77/88/51
f 24/35/24 20/39/45 76/89/48 78/85/52
f 6/42/7 27/38/58 79/86/55 68/90/10
f 25/41/53 8/45/14 69/91/11 80/87/56
f 27/44/58 31/40/66 81/88/63 79/92/55
f 29/39/61 25/43/53 80/93/56 82/89/64
f 31/46/66 35/42/74 83/90/71 81/94/63
f 33/45/69 29/49/61 82/95/64 84/91/72
f 35/49/74 39/48/82 85/96/79 83/95/71
f 37/48/77 33/44/69 84/92/72 86/96/80
f 39/43/82 43/47/19 87/97/85 85/93/79
f 43/47/19 41/50/18 88/98/86 87/97/85
f 41/50/18 37/46/77 86/94/80 88/98/86
