# This file uses centimeters as units for non-parametric coordinates.

mtllib appleFull1.mtl
g default
v -52.844915 -0.191501 9.172197
v -54.092007 -0.326369 8.655635
v -55.339098 -0.326369 9.172197
v -55.855661 0.114359 10.419289
v -55.339098 -0.326369 11.666380
v -54.092007 -0.139802 12.182947
v -52.844915 -0.326369 11.666380
v -52.328353 0.045647 10.419289
v -52.446584 0.252954 8.773866
v -54.092007 0.118086 8.092310
v -55.737429 0.118086 8.773866
v -56.418987 0.393637 10.419289
v -55.737429 0.118086 12.064716
v -54.092007 0.304653 12.746268
v -52.446584 0.118086 12.064716
v -51.765027 0.490102 10.419289
v -52.230703 1.237685 8.557985
v -54.092007 1.237685 7.787007
v -55.953311 1.237685 8.557985
v -56.724289 1.237685 10.419289
v -55.953311 1.237685 12.280595
v -54.092007 1.237685 13.051575
v -52.230702 1.237685 12.280595
v -51.459725 1.237685 10.419289
v -51.900617 2.585998 8.227899
v -54.092007 2.585998 7.320196
v -56.283397 2.585998 8.227899
v -57.191100 2.585998 10.419289
v -56.283397 2.585998 12.610682
v -54.092007 2.585998 13.518381
v -51.900617 2.585998 12.610682
v -50.992913 2.585998 10.419289
v -51.858312 3.366835 8.185595
v -54.092007 3.366835 7.260368
v -56.325701 3.366835 8.185595
v -57.250928 3.366835 10.419289
v -56.325701 3.366835 12.652986
v -54.092007 3.366835 13.578213
v -51.858312 3.366835 12.652986
v -50.933086 3.366835 10.419289
v -52.382411 4.679349 8.709693
v -54.092007 4.679349 8.001555
v -55.801603 4.226531 8.709693
v -56.509740 4.476101 10.419289
v -55.801603 4.476101 12.128883
v -54.092007 4.476101 12.837028
v -52.382411 4.476101 12.128883
v -51.674273 4.679349 10.419289
v -53.024837 5.114925 9.330604
v -54.078795 5.114925 8.894043
v -55.145965 4.664549 9.336655
v -55.582529 4.995285 10.390612
v -55.145965 5.006257 11.797193
v -54.170737 4.982767 12.304256
v -53.038049 4.848770 11.444574
v -52.601485 5.142062 10.390612
v -53.521366 4.881211 9.851441
v -54.084942 4.881211 9.618000
v -54.655582 4.773835 9.854676
v -54.889023 4.817237 10.418252
v -54.655582 4.823104 10.981829
v -54.092007 4.810543 11.215272
v -53.528431 4.738892 10.981829
v -53.294990 4.895722 10.418252
v -53.200557 -0.325031 9.527840
v -54.092007 -0.325031 9.158590
v -54.197724 0.521495 10.419289
v -54.983456 -0.325031 9.527840
v -55.352707 -0.159854 10.419289
v -54.983456 -0.325031 11.310741
v -54.092007 -0.325031 11.679988
v -53.200557 -0.325031 11.310741
v -52.831307 -0.159854 10.419289
v -53.900517 4.607949 10.226973
v -54.089636 4.607949 10.148637
v -54.281126 4.571918 10.228059
v -54.359461 4.586482 10.417178
v -54.281126 4.588451 10.606297
v -54.092007 4.584235 10.684633
v -53.902888 4.560192 10.606297
v -53.824552 4.612819 10.417178
v -53.921382 4.906939 10.289719
v -54.063681 4.912731 10.209122
v -54.223427 4.880839 10.251053
v -54.304233 4.882253 10.393821
v -54.260750 4.872516 10.551286
v -54.118452 4.863362 10.631642
v -53.960693 4.847307 10.586894
v -53.879888 4.899470 10.447976
v -53.923926 5.544759 10.340640
v -54.028445 5.561612 10.271030
v -54.154432 5.533482 10.288314
v -54.226103 5.516316 10.391773
v -54.202844 5.487259 10.512894
v -54.098308 5.467877 10.581866
v -53.973671 5.459848 10.555857
v -53.902252 5.517350 10.462539
v -53.956435 6.125395 10.485381
v -54.036728 6.142561 10.433108
v -54.063755 6.032505 10.527531
v -54.133512 6.119962 10.444621
v -54.188570 6.100483 10.522796
v -54.170702 6.070819 10.613768
v -54.090397 6.051754 10.665397
v -53.994650 6.047198 10.644990
v -53.939785 6.096943 10.577050
vt 0.000000 0.125000
vt 0.125000 0.125000
vt 0.250000 0.125000
vt 0.375000 0.125000
vt 0.500000 0.125000
vt 0.625000 0.125000
vt 0.750000 0.125000
vt 0.875000 0.125000
vt 1.000000 0.125000
vt 0.000000 0.250000
vt 0.125000 0.250000
vt 0.250000 0.250000
vt 0.375000 0.250000
vt 0.500000 0.250000
vt 0.625000 0.250000
vt 0.750000 0.250000
vt 0.875000 0.250000
vt 1.000000 0.250000
vt 0.000000 0.375000
vt 0.125000 0.375000
vt 0.250000 0.375000
vt 0.375000 0.375000
vt 0.500000 0.375000
vt 0.625000 0.375000
vt 0.750000 0.375000
vt 0.875000 0.375000
vt 1.000000 0.375000
vt 0.000000 0.500000
vt 0.125000 0.500000
vt 0.250000 0.500000
vt 0.375000 0.500000
vt 0.500000 0.500000
vt 0.625000 0.500000
vt 0.750000 0.500000
vt 0.875000 0.500000
vt 1.000000 0.500000
vt 0.000000 0.625000
vt 0.125000 0.625000
vt 0.250000 0.625000
vt 0.375000 0.625000
vt 0.500000 0.625000
vt 0.625000 0.625000
vt 0.750000 0.625000
vt 0.875000 0.625000
vt 1.000000 0.625000
vt 0.000000 0.750000
vt 0.125000 0.750000
vt 0.250000 0.750000
vt 0.375000 0.750000
vt 0.500000 0.750000
vt 0.625000 0.750000
vt 0.750000 0.750000
vt 0.875000 0.750000
vt 1.000000 0.750000
vt 0.000000 0.875000
vt 0.125000 0.875000
vt 0.250000 0.875000
vt 0.375000 0.875000
vt 0.500000 0.875000
vt 0.625000 0.875000
vt 0.750000 0.875000
vt 0.875000 0.875000
vt 1.000000 0.875000
vt 0.062500 0.000000
vt 0.187500 0.000000
vt 0.312500 0.000000
vt 0.437500 0.000000
vt 0.562500 0.000000
vt 0.687500 0.000000
vt 0.812500 0.000000
vt 0.937500 0.000000
vt 0.062500 1.000000
vt 0.187500 1.000000
vt 0.312500 1.000000
vt 0.437500 1.000000
vt 0.562500 1.000000
vt 0.687500 1.000000
vt 0.812500 1.000000
vt 0.937500 1.000000
vt 0.000000 0.875000
vt 0.125000 0.875000
vt 0.250000 0.875000
vt 0.375000 0.875000
vt 0.500000 0.875000
vt 0.625000 0.875000
vt 0.750000 0.875000
vt 0.875000 0.875000
vt 1.000000 0.875000
vt 0.125000 0.125000
vt 0.000000 0.125000
vt 0.250000 0.125000
vt 0.375000 0.125000
vt 0.500000 0.125000
vt 0.625000 0.125000
vt 0.750000 0.125000
vt 0.875000 0.125000
vt 1.000000 0.125000
vt 0.000000 0.875000
vt 0.125000 0.875000
vt 0.250000 0.875000
vt 0.375000 0.875000
vt 0.500000 0.875000
vt 0.625000 0.875000
vt 0.750000 0.875000
vt 0.875000 0.875000
vt 1.000000 0.875000
vt 0.000000 0.875000
vt 0.125000 0.875000
vt 0.250000 0.875000
vt 0.375000 0.875000
vt 0.500000 0.875000
vt 0.625000 0.875000
vt 0.750000 0.875000
vt 0.875000 0.875000
vt 1.000000 0.875000
vt 0.000000 0.875000
vt 0.125000 0.875000
vt 0.250000 0.875000
vt 0.375000 0.875000
vt 0.500000 0.875000
vt 0.625000 0.875000
vt 0.750000 0.875000
vt 0.875000 0.875000
vt 1.000000 0.875000
vt 0.000000 0.875000
vt 0.125000 0.875000
vt 0.250000 0.875000
vt 0.375000 0.875000
vt 0.500000 0.875000
vt 0.625000 0.875000
vt 0.750000 0.875000
vt 0.875000 0.875000
vt 1.000000 0.875000
vn 0.432946 -0.850316 -0.299200
vn 0.034586 -0.872288 -0.487768
vn -0.001294 -0.440977 -0.897518
vn 0.622018 -0.472243 -0.624564
vn -0.370596 -0.892725 -0.256320
vn -0.623448 -0.466374 -0.627542
vn -0.537431 -0.843308 0.000000
vn -0.896148 -0.443755 -0.000000
vn -0.337850 -0.894388 0.293132
vn -0.614806 -0.491427 0.616858
vn 0.000000 -0.834303 0.551306
vn -0.000000 -0.430728 0.902482
vn 0.367572 -0.879454 0.302409
vn 0.615813 -0.493731 0.614006
vn 0.586402 -0.809305 -0.034016
vn 0.890166 -0.455629 0.002376
vn -0.002958 -0.306461 -0.951879
vn 0.664133 -0.319132 -0.676078
vn -0.667913 -0.310094 -0.676560
vn -0.948799 -0.315880 0.000000
vn -0.669677 -0.315051 0.672514
vn 0.000000 -0.311652 0.950196
vn 0.667493 -0.317669 0.673454
vn 0.945963 -0.324259 0.003065
vn 0.000000 -0.228955 -0.973437
vn 0.688324 -0.228955 -0.688324
vn -0.688324 -0.228955 -0.688324
vn -0.973437 -0.228955 0.000000
vn -0.688324 -0.228955 0.688324
vn 0.000000 -0.228955 0.973437
vn 0.688324 -0.228955 0.688324
vn 0.973437 -0.228955 -0.000000
vn 0.004671 0.294499 -0.955640
vn 0.678960 0.279333 -0.678960
vn -0.672303 0.303121 -0.675371
vn -0.950516 0.310665 0.002721
vn -0.674271 0.301195 0.674271
vn 0.000000 0.301195 0.953562
vn 0.677364 0.293878 0.674399
vn 0.958242 0.285952 -0.002036
vn -0.017237 0.659313 -0.751671
vn 0.560601 0.610252 -0.559749
vn -0.538190 0.654913 -0.530509
vn -0.727731 0.685781 -0.010575
vn -0.561491 0.635296 0.530214
vn 0.013806 0.631592 0.775178
vn 0.544936 0.634994 0.547565
vn 0.769081 0.639088 0.009008
vn -0.130612 0.956958 -0.259177
vn 0.207606 0.955082 -0.211467
vn -0.344955 0.899357 -0.268630
vn -0.331304 0.939748 -0.084329
vn -0.283140 0.919798 0.271669
vn 0.032537 0.919535 0.391659
vn 0.207850 0.941461 0.265423
vn 0.255383 0.964476 0.067567
vn 0.026096 -0.972988 0.229375
vn -0.007000 -0.983419 0.181213
vn 0.017254 -0.999851 0.000000
vn 0.042506 -0.967280 0.250125
vn 0.002906 -0.999996 -0.000000
vn 0.042402 -0.981345 -0.187519
vn -0.006006 -0.990028 -0.140745
vn -0.067137 -0.981357 -0.180086
vn -0.012383 -0.999430 -0.031401
vn -0.431255 0.735420 0.522663
vn -0.191925 0.665768 0.721053
vn -0.040129 0.935791 0.350265
vn 0.167951 0.745464 0.645039
vn 0.440594 0.832399 0.336138
vn 0.377006 0.924466 0.056823
vn 0.154415 0.982163 -0.107290
vn -0.273884 0.960891 0.040936
vn -0.527246 0.804746 0.272757
vn -0.186878 0.950794 0.247119
vn -0.230064 0.950832 0.207338
vn -0.060789 0.998045 0.014519
vn 0.192673 0.973375 -0.124173
vn 0.170823 0.977943 -0.120197
vn 0.050476 0.984620 -0.167257
vn -0.138485 0.988905 -0.053751
vn -0.328329 0.937374 0.116317
vn -0.185799 0.874228 0.448558
vn -0.185799 0.874228 0.448558
vn -0.185799 0.874228 0.448558
vn -0.185799 0.874228 0.448558
vn 0.022673 0.888730 0.457869
vn 0.022673 0.888730 0.457869
vn 0.022673 0.888730 0.457869
vn 0.022673 0.888730 0.457869
vn 0.397842 0.912573 0.094513
vn 0.397842 0.912573 0.094513
vn 0.397842 0.912573 0.094513
vn 0.397842 0.912573 0.094513
vn 0.393203 0.903168 -0.172274
vn 0.393203 0.903168 -0.172274
vn 0.393203 0.903168 -0.172274
vn 0.393203 0.903168 -0.172274
vn 0.180009 0.904814 -0.385885
vn 0.180009 0.904814 -0.385885
vn 0.180009 0.904814 -0.385885
vn 0.180009 0.904814 -0.385885
vn -0.045503 0.918887 -0.391888
vn -0.045503 0.918887 -0.391888
vn -0.045503 0.918887 -0.391888
vn -0.045503 0.918887 -0.391888
vn -0.470684 0.880875 0.050164
vn -0.470684 0.880875 0.050164
vn -0.470684 0.880875 0.050164
vn -0.470684 0.880875 0.050164
vn -0.465117 0.870022 0.163487
vn -0.465117 0.870022 0.163487
vn -0.465117 0.870022 0.163487
vn -0.465117 0.870022 0.163487
vn 0.428076 0.177263 -0.886188
vn 0.428076 0.177263 -0.886188
vn 0.428076 0.177263 -0.886188
vn 0.428076 0.177263 -0.886188
vn -0.351364 0.173051 -0.920107
vn -0.351364 0.173051 -0.920107
vn -0.351364 0.173051 -0.920107
vn -0.351364 0.173051 -0.920107
vn -0.886178 0.165235 -0.432882
vn -0.886178 0.165235 -0.432882
vn -0.886178 0.165235 -0.432882
vn -0.886178 0.165235 -0.432882
vn -0.929196 0.165800 0.330312
vn -0.929196 0.165800 0.330312
vn -0.929196 0.165800 0.330312
vn -0.929196 0.165800 0.330312
vn -0.420369 0.166515 0.891943
vn -0.420369 0.166515 0.891943
vn -0.420369 0.166515 0.891943
vn -0.420369 0.166515 0.891943
vn 0.346912 0.169551 0.922445
vn 0.346912 0.169551 0.922445
vn 0.346912 0.169551 0.922445
vn 0.346912 0.169551 0.922445
vn 0.866655 0.161522 0.472037
vn 0.866655 0.161522 0.472037
vn 0.866655 0.161522 0.472037
vn 0.866655 0.161522 0.472037
vn 0.933944 0.171601 -0.313531
vn 0.933944 0.171601 -0.313531
vn 0.933944 0.171601 -0.313531
vn 0.933944 0.171601 -0.313531
vn 0.522990 0.061259 -0.850134
vn 0.522990 0.061259 -0.850134
vn 0.522990 0.061259 -0.850134
vn 0.522990 0.061259 -0.850134
vn -0.220494 0.091649 -0.971073
vn -0.220494 0.091649 -0.971073
vn -0.220494 0.091649 -0.971073
vn -0.220494 0.091649 -0.971073
vn -0.848086 0.111150 -0.518069
vn -0.848086 0.111150 -0.518069
vn -0.848086 0.111150 -0.518069
vn -0.848086 0.111150 -0.518069
vn -0.962597 0.112835 0.246324
vn -0.962597 0.112835 0.246324
vn -0.962597 0.112835 0.246324
vn -0.962597 0.112835 0.246324
vn -0.507293 0.094416 0.856586
vn -0.507293 0.094416 0.856586
vn -0.507293 0.094416 0.856586
vn -0.507293 0.094416 0.856586
vn 0.247595 0.062740 0.966830
vn 0.247595 0.062740 0.966830
vn 0.247595 0.062740 0.966830
vn 0.247595 0.062740 0.966830
vn 0.829098 0.031288 0.558227
vn 0.829098 0.031288 0.558227
vn 0.829098 0.031288 0.558227
vn 0.829098 0.031288 0.558227
vn 0.975865 0.030632 -0.216217
vn 0.975865 0.030632 -0.216217
vn 0.975865 0.030632 -0.216217
vn 0.975865 0.030632 -0.216217
vn 0.564942 0.229210 -0.792656
vn 0.564942 0.229210 -0.792656
vn 0.564942 0.229210 -0.792656
vn 0.564942 0.229210 -0.792656
vn -0.181898 0.260557 -0.948168
vn -0.181898 0.260557 -0.948168
vn -0.181898 0.260557 -0.948168
vn -0.181898 0.260557 -0.948168
vn -0.823750 0.173604 -0.539720
vn -0.823750 0.173604 -0.539720
vn -0.823750 0.173604 -0.539720
vn -0.823750 0.173604 -0.539720
vn -0.980492 0.019665 0.195573
vn -0.980492 0.019665 0.195573
vn -0.980492 0.019665 0.195573
vn -0.980492 0.019665 0.195573
vn -0.559116 -0.110608 0.821678
vn -0.559116 -0.110608 0.821678
vn -0.559116 -0.110608 0.821678
vn -0.559116 -0.110608 0.821678
vn 0.196328 -0.140863 0.970367
vn 0.196328 -0.140863 0.970367
vn 0.196328 -0.140863 0.970367
vn 0.196328 -0.140863 0.970367
vn 0.805512 -0.062446 0.589281
vn 0.805512 -0.062446 0.589281
vn 0.805512 -0.062446 0.589281
vn 0.805512 -0.062446 0.589281
vn 0.983937 0.093394 -0.152134
vn 0.983937 0.093394 -0.152134
vn 0.983937 0.093394 -0.152134
vn 0.983937 0.093394 -0.152134
s 1
g pSphere2
usemtl initialShadingGroup
f 1/1/1 2/2/2 10/11/3 9/10/4
f 2/2/2 3/3/5 11/12/6 10/11/3
f 3/3/5 4/4/7 12/13/8 11/12/6
f 4/4/7 5/5/9 13/14/10 12/13/8
f 5/5/9 6/6/11 14/15/12 13/14/10
f 6/6/11 7/7/13 15/16/14 14/15/12
f 7/7/13 8/8/15 16/17/16 15/16/14
f 8/8/15 1/9/1 9/18/4 16/17/16
f 9/10/4 10/11/3 18/20/17 17/19/18
f 10/11/3 11/12/6 19/21/19 18/20/17
f 11/12/6 12/13/8 20/22/20 19/21/19
f 12/13/8 13/14/10 21/23/21 20/22/20
f 13/14/10 14/15/12 22/24/22 21/23/21
f 14/15/12 15/16/14 23/25/23 22/24/22
f 15/16/14 16/17/16 24/26/24 23/25/23
f 16/17/16 9/18/4 17/27/18 24/26/24
f 17/19/18 18/20/17 26/29/25 25/28/26
f 18/20/17 19/21/19 27/30/27 26/29/25
f 19/21/19 20/22/20 28/31/28 27/30/27
f 20/22/20 21/23/21 29/32/29 28/31/28
f 21/23/21 22/24/22 30/33/30 29/32/29
f 22/24/22 23/25/23 31/34/31 30/33/30
f 23/25/23 24/26/24 32/35/32 31/34/31
f 24/26/24 17/27/18 25/36/26 32/35/32
f 25/28/26 26/29/25 34/38/33 33/37/34
f 26/29/25 27/30/27 35/39/35 34/38/33
f 27/30/27 28/31/28 36/40/36 35/39/35
f 28/31/28 29/32/29 37/41/37 36/40/36
f 29/32/29 30/33/30 38/42/38 37/41/37
f 30/33/30 31/34/31 39/43/39 38/42/38
f 31/34/31 32/35/32 40/44/40 39/43/39
f 32/35/32 25/36/26 33/45/34 40/44/40
f 33/37/34 34/38/33 42/47/41 41/46/42
f 34/38/33 35/39/35 43/48/43 42/47/41
f 35/39/35 36/40/36 44/49/44 43/48/43
f 36/40/36 37/41/37 45/50/45 44/49/44
f 37/41/37 38/42/38 46/51/46 45/50/45
f 38/42/38 39/43/39 47/52/47 46/51/46
f 39/43/39 40/44/40 48/53/48 47/52/47
f 40/44/40 33/45/34 41/54/42 48/53/48
f 41/46/42 42/47/41 50/56/49 49/55/50
f 42/47/41 43/48/43 51/57/51 50/56/49
f 43/48/43 44/49/44 52/58/52 51/57/51
f 44/49/44 45/50/45 53/59/53 52/58/52
f 45/50/45 46/51/46 54/60/54 53/59/53
f 46/51/46 47/52/47 55/61/55 54/60/54
f 47/52/47 48/53/48 56/62/56 55/61/55
f 48/53/48 41/54/42 49/63/50 56/62/56
f 66/89/57 65/90/58 67/64/59
f 68/91/60 66/89/57 67/65/59
f 69/92/61 68/91/60 67/66/59
f 70/93/62 69/92/61 67/67/59
f 71/94/63 70/93/62 67/68/59
f 72/95/64 71/94/63 67/69/59
f 73/96/65 72/95/64 67/70/59
f 65/97/58 73/96/65 67/71/59
s 2
f 98/125/66 99/126/67 100/72/68
f 99/126/67 101/127/69 100/73/68
f 101/127/69 102/128/70 100/74/68
f 102/128/70 103/129/71 100/75/68
f 103/129/71 104/130/72 100/76/68
f 104/130/72 105/131/73 100/77/68
f 105/131/73 106/132/74 100/78/68
f 106/132/74 98/133/66 100/79/68
s 1
f 49/55/50 50/56/49 58/81/75 57/80/76
f 50/56/49 51/57/51 59/82/77 58/81/75
f 51/57/51 52/58/52 60/83/78 59/82/77
f 52/58/52 53/59/53 61/84/79 60/83/78
f 53/59/53 54/60/54 62/85/80 61/84/79
f 54/60/54 55/61/55 63/86/81 62/85/80
f 55/61/55 56/62/56 64/87/82 63/86/81
f 56/62/56 49/63/50 57/88/76 64/87/82
f 2/2/2 1/1/1 65/90/58 66/89/57
f 3/3/5 2/2/2 66/89/57 68/91/60
f 4/4/7 3/3/5 68/91/60 69/92/61
f 5/5/9 4/4/7 69/92/61 70/93/62
f 6/6/11 5/5/9 70/93/62 71/94/63
f 7/7/13 6/6/11 71/94/63 72/95/64
f 8/8/15 7/7/13 72/95/64 73/96/65
f 1/9/1 8/8/15 73/96/65 65/97/58
s off
f 57/80/83 58/81/84 75/99/85 74/98/86
f 58/81/87 59/82/88 76/100/89 75/99/90
f 59/82/91 60/83/92 77/101/93 76/100/94
f 60/83/95 61/84/96 78/102/97 77/101/98
f 61/84/99 62/85/100 79/103/101 78/102/102
f 62/85/103 63/86/104 80/104/105 79/103/106
f 63/86/107 64/87/108 81/105/109 80/104/110
f 64/87/111 57/88/112 74/106/113 81/105/114
f 74/98/115 75/99/116 83/108/117 82/107/118
f 75/99/119 76/100/120 84/109/121 83/108/122
f 76/100/123 77/101/124 85/110/125 84/109/126
f 77/101/127 78/102/128 86/111/129 85/110/130
f 78/102/131 79/103/132 87/112/133 86/111/134
f 79/103/135 80/104/136 88/113/137 87/112/138
f 80/104/139 81/105/140 89/114/141 88/113/142
f 81/105/143 74/106/144 82/115/145 89/114/146
f 82/107/147 83/108/148 91/117/149 90/116/150
f 83/108/151 84/109/152 92/118/153 91/117/154
f 84/109/155 85/110/156 93/119/157 92/118/158
f 85/110/159 86/111/160 94/120/161 93/119/162
f 86/111/163 87/112/164 95/121/165 94/120/166
f 87/112/167 88/113/168 96/122/169 95/121/170
f 88/113/171 89/114/172 97/123/173 96/122/174
f 89/114/175 82/115/176 90/124/177 97/123/178
f 90/116/179 91/117/180 99/126/181 98/125/182
f 91/117/183 92/118/184 101/127/185 99/126/186
f 92/118/187 93/119/188 102/128/189 101/127/190
f 93/119/191 94/120/192 103/129/193 102/128/194
f 94/120/195 95/121/196 104/130/197 103/129/198
f 95/121/199 96/122/200 105/131/201 104/130/202
f 96/122/203 97/123/204 106/132/205 105/131/206
f 97/123/207 90/124/208 98/133/209 106/132/210
