# This file uses centimeters as units for non-parametric coordinates.

mtllib appleFull.mtl
g default
v -40.777251 -0.191501 9.172195
v -42.024346 -0.326369 8.655633
v -43.271438 -0.326369 9.172195
v -43.787996 0.114359 10.419287
v -43.271438 -0.326369 11.666377
v -42.024346 -0.139802 12.182947
v -40.777251 -0.326369 11.666377
v -40.260693 0.045647 10.419287
v -40.052930 0.439339 9.271304
v -42.017722 0.316156 8.034964
v -43.699191 0.312742 8.744435
v -44.351326 0.393637 10.419287
v -43.669768 0.118086 12.064716
v -42.024346 0.304653 12.746268
v -40.378921 0.118086 12.064716
v -39.697365 0.490102 10.419287
v -39.823285 1.425855 9.038961
v -43.900362 1.435201 8.953096
v -44.656626 1.237685 10.419287
v -43.885650 1.237685 12.280595
v -42.024346 1.237685 13.051575
v -40.163036 1.237685 12.280595
v -39.392063 1.237685 10.419287
v -39.472458 2.877850 8.681574
v -44.208635 2.787910 8.776427
v -45.123438 2.585998 10.419287
v -44.215733 2.585998 12.610682
v -42.024346 2.585998 13.518378
v -39.832953 2.585998 12.610682
v -38.925251 2.585998 10.419287
v -39.902045 3.659288 8.336812
v -41.964376 3.674850 7.301124
v -44.247006 3.670215 8.264246
v -45.183267 3.366835 10.419287
v -44.258042 3.366835 12.652986
v -42.024346 3.366835 13.578213
v -39.790650 3.366835 12.652986
v -38.865424 3.366835 10.419287
v -40.314750 4.679349 8.709692
v -42.024346 4.679349 8.001553
v -43.733941 4.226531 8.709692
v -44.442076 4.476101 10.419287
v -43.733941 4.476101 12.128881
v -42.024346 4.476101 12.837028
v -40.314750 4.476101 12.128881
v -39.606613 4.679349 10.419287
v -40.957175 5.114925 9.330602
v -42.011135 5.114925 8.894041
v -43.078303 4.664549 9.336653
v -43.514866 4.995285 10.390610
v -43.078303 5.006257 11.797193
v -42.103077 4.982767 12.304256
v -40.970385 4.848770 11.444574
v -40.533821 5.142062 10.390610
v -41.453704 4.881211 9.851439
v -42.017280 4.881211 9.617999
v -42.587920 4.773835 9.854674
v -42.821362 4.817237 10.418250
v -42.587920 4.823104 10.981829
v -42.024346 4.810543 11.215272
v -41.460769 4.738892 10.981829
v -41.227325 4.895722 10.418250
v -41.132892 -0.325031 9.527838
v -42.024346 -0.325031 9.158588
v -42.130061 0.521495 10.419287
v -42.915794 -0.325031 9.527838
v -43.285045 -0.159854 10.419287
v -42.915794 -0.325031 11.310741
v -42.024346 -0.325031 11.679985
v -41.132892 -0.325031 11.310741
v -40.763644 -0.159854 10.419287
v -41.832855 4.607949 10.226971
v -42.021972 4.607949 10.148635
v -42.213462 4.571918 10.228057
v -42.291800 4.586482 10.417176
v -42.213462 4.588451 10.606295
v -42.024346 4.584235 10.684631
v -41.835226 4.560192 10.606295
v -41.756889 4.612819 10.417176
v -41.853722 4.906939 10.289717
v -41.996017 4.912731 10.209120
v -42.155761 4.880839 10.251051
v -42.236571 4.882253 10.393819
v -42.193088 4.872516 10.551284
v -42.050787 4.863362 10.631640
v -41.893032 4.847307 10.586892
v -41.812224 4.899470 10.447975
v -41.856261 5.544759 10.340638
v -41.960784 5.561612 10.271028
v -42.086769 5.533482 10.288312
v -42.158443 5.516316 10.391771
v -42.135177 5.487259 10.512892
v -42.030646 5.467877 10.581864
v -41.906009 5.459848 10.555855
v -41.834591 5.517350 10.462537
v -41.888771 6.125395 10.485379
v -41.969062 6.142561 10.433106
v -41.996092 6.032505 10.527530
v -42.065848 6.119962 10.444619
v -42.120906 6.100483 10.522794
v -42.103038 6.070819 10.613766
v -42.022731 6.051754 10.665395
v -41.926987 6.047198 10.644988
v -41.872123 6.096943 10.577048
v -40.697719 0.786959 8.674044
v -42.026139 0.594794 7.770362
v -40.313898 1.541967 8.608265
v -43.144470 0.739884 7.990251
v -43.521343 1.591308 8.352716
v -40.528779 2.547236 8.214424
v -43.396188 2.614511 8.448642
v -41.934146 3.297416 7.183214
v -41.379633 3.143270 7.572451
v -42.908088 3.211496 7.467803
v -41.094503 1.053867 9.068559
v -42.265145 0.857281 8.528843
v -42.129134 1.732067 9.035629
v -40.948694 1.630928 9.036647
v -42.645653 1.092928 8.668459
v -43.212820 1.813092 9.047305
v -42.114985 2.252876 8.974041
v -40.936293 2.451956 8.989403
v -43.099953 2.678643 9.005694
v -42.182373 2.852782 8.441808
v -41.793242 2.796076 8.634720
v -42.573191 2.838636 8.581563
vt 0.000000 0.125000
vt 0.125000 0.125000
vt 0.250000 0.125000
vt 0.375000 0.125000
vt 0.500000 0.125000
vt 0.625000 0.125000
vt 0.750000 0.125000
vt 0.875000 0.125000
vt 1.000000 0.125000
vt 0.000000 0.250000
vt 0.125000 0.250000
vt 0.250000 0.250000
vt 0.375000 0.250000
vt 0.500000 0.250000
vt 0.625000 0.250000
vt 0.750000 0.250000
vt 0.875000 0.250000
vt 1.000000 0.250000
vt 0.000000 0.375000
vt 0.125000 0.375000
vt 0.250000 0.375000
vt 0.375000 0.375000
vt 0.500000 0.375000
vt 0.625000 0.375000
vt 0.750000 0.375000
vt 0.875000 0.375000
vt 1.000000 0.375000
vt 0.000000 0.500000
vt 0.125000 0.500000
vt 0.250000 0.500000
vt 0.375000 0.500000
vt 0.500000 0.500000
vt 0.625000 0.500000
vt 0.750000 0.500000
vt 0.875000 0.500000
vt 1.000000 0.500000
vt 0.000000 0.625000
vt 0.125000 0.625000
vt 0.250000 0.625000
vt 0.375000 0.625000
vt 0.500000 0.625000
vt 0.625000 0.625000
vt 0.750000 0.625000
vt 0.875000 0.625000
vt 1.000000 0.625000
vt 0.000000 0.750000
vt 0.125000 0.750000
vt 0.250000 0.750000
vt 0.375000 0.750000
vt 0.500000 0.750000
vt 0.625000 0.750000
vt 0.750000 0.750000
vt 0.875000 0.750000
vt 1.000000 0.750000
vt 0.000000 0.875000
vt 0.125000 0.875000
vt 0.250000 0.875000
vt 0.375000 0.875000
vt 0.500000 0.875000
vt 0.625000 0.875000
vt 0.750000 0.875000
vt 0.875000 0.875000
vt 1.000000 0.875000
vt 0.062500 0.000000
vt 0.187500 0.000000
vt 0.312500 0.000000
vt 0.437500 0.000000
vt 0.562500 0.000000
vt 0.687500 0.000000
vt 0.812500 0.000000
vt 0.937500 0.000000
vt 0.062500 1.000000
vt 0.187500 1.000000
vt 0.312500 1.000000
vt 0.437500 1.000000
vt 0.562500 1.000000
vt 0.687500 1.000000
vt 0.812500 1.000000
vt 0.937500 1.000000
vt 0.000000 0.875000
vt 0.125000 0.875000
vt 0.250000 0.875000
vt 0.375000 0.875000
vt 0.500000 0.875000
vt 0.625000 0.875000
vt 0.750000 0.875000
vt 0.875000 0.875000
vt 1.000000 0.875000
vt 0.125000 0.125000
vt 0.000000 0.125000
vt 0.250000 0.125000
vt 0.375000 0.125000
vt 0.500000 0.125000
vt 0.625000 0.125000
vt 0.750000 0.125000
vt 0.875000 0.125000
vt 1.000000 0.125000
vt 0.000000 0.875000
vt 0.125000 0.875000
vt 0.250000 0.875000
vt 0.375000 0.875000
vt 0.500000 0.875000
vt 0.625000 0.875000
vt 0.750000 0.875000
vt 0.875000 0.875000
vt 1.000000 0.875000
vt 0.000000 0.875000
vt 0.125000 0.875000
vt 0.250000 0.875000
vt 0.375000 0.875000
vt 0.500000 0.875000
vt 0.625000 0.875000
vt 0.750000 0.875000
vt 0.875000 0.875000
vt 1.000000 0.875000
vt 0.000000 0.875000
vt 0.125000 0.875000
vt 0.250000 0.875000
vt 0.375000 0.875000
vt 0.500000 0.875000
vt 0.625000 0.875000
vt 0.750000 0.875000
vt 0.875000 0.875000
vt 1.000000 0.875000
vt 0.000000 0.875000
vt 0.125000 0.875000
vt 0.250000 0.875000
vt 0.375000 0.875000
vt 0.500000 0.875000
vt 0.625000 0.875000
vt 0.750000 0.875000
vt 0.875000 0.875000
vt 1.000000 0.875000
vt 0.000000 0.250000
vt 0.125000 0.250000
vt 0.000000 0.375000
vt 0.250000 0.250000
vt 0.250000 0.375000
vt 0.000000 0.500000
vt 0.250000 0.500000
vt 0.125000 0.625000
vt 0.000000 0.625000
vt 0.250000 0.625000
vt 0.000000 0.250000
vt 0.125000 0.250000
vt 0.000000 0.375000
vt 0.250000 0.250000
vt 0.250000 0.375000
vt 0.000000 0.500000
vt 0.250000 0.500000
vt 0.125000 0.625000
vt 0.000000 0.625000
vt 0.250000 0.625000
vn 0.465125 -0.735612 -0.492476
vn 0.070011 -0.766667 -0.638217
vn 0.108267 -0.649158 -0.752909
vn 0.720240 -0.534564 -0.442149
vn -0.413272 -0.835044 -0.363190
vn -0.704805 -0.483665 -0.518959
vn -0.565709 -0.823866 -0.034894
vn -0.904310 -0.426717 -0.011635
vn -0.337850 -0.894389 0.293131
vn -0.614806 -0.491427 0.616857
vn -0.000000 -0.834304 0.551305
vn -0.000000 -0.430728 0.902481
vn 0.367572 -0.879454 0.302408
vn 0.615813 -0.493732 0.614006
vn 0.585010 -0.810425 -0.031219
vn 0.879112 -0.472133 0.065210
vn -0.002497 0.609825 -0.792532
vn 0.118511 0.779230 -0.615431
vn 0.061381 0.144041 -0.987666
vn -0.277912 0.024133 -0.960303
vn 0.240815 0.666990 -0.705076
vn 0.503093 0.208883 -0.838609
vn -0.955654 -0.294348 -0.009188
vn -0.831519 -0.194079 -0.520489
vn -0.669678 -0.315051 0.672514
vn 0.000000 -0.311651 0.950197
vn 0.667493 -0.317669 0.673454
vn 0.943466 -0.321276 0.081575
vn 0.809336 -0.317077 -0.494406
vn -0.018868 -0.265296 -0.963982
vn -0.368737 -0.571968 -0.732725
vn 0.391743 -0.534502 -0.748896
vn -0.968783 -0.247296 -0.017424
vn -0.782316 -0.279769 -0.556517
vn -0.688324 -0.228956 0.688324
vn 0.000000 -0.228955 0.973437
vn 0.688324 -0.228955 0.688324
vn 0.979153 -0.195293 0.055849
vn 0.832453 -0.124689 -0.539884
vn -0.040236 -0.890063 -0.454058
vn -0.078062 -0.849148 -0.522354
vn 0.003662 -0.896513 -0.443003
vn -0.960016 0.279305 0.018904
vn -0.719721 0.288735 -0.631375
vn -0.674271 0.301195 0.674270
vn 0.000000 0.301195 0.953562
vn 0.677364 0.293879 0.674399
vn 0.947075 0.318557 0.039639
vn 0.685821 0.321819 -0.652749
vn 0.034324 0.508253 -0.860524
vn -0.022587 0.723084 -0.690390
vn 0.564146 0.637725 -0.524449
vn -0.518740 0.712505 -0.472488
vn -0.712556 0.701340 0.019651
vn -0.561491 0.635297 0.530213
vn 0.013806 0.631593 0.775177
vn 0.544936 0.634994 0.547564
vn 0.762639 0.646142 0.029695
vn -0.130612 0.956958 -0.259177
vn 0.207606 0.955082 -0.211467
vn -0.344956 0.899357 -0.268630
vn -0.331304 0.939748 -0.084329
vn -0.283141 0.919797 0.271669
vn 0.032536 0.919535 0.391660
vn 0.207851 0.941461 0.265423
vn 0.255383 0.964476 0.067567
vn 0.026096 -0.972988 0.229375
vn -0.007000 -0.983419 0.181213
vn 0.017254 -0.999851 0.000000
vn 0.042506 -0.967280 0.250125
vn 0.002906 -0.999996 -0.000000
vn 0.042402 -0.981345 -0.187519
vn -0.006006 -0.990027 -0.140746
vn -0.067137 -0.981357 -0.180085
vn -0.012384 -0.999430 -0.031400
vn 0.824767 0.250526 -0.506948
vn 0.215677 0.336917 -0.916499
vn -0.040126 0.935791 0.350265
vn -0.521979 0.304233 -0.796857
vn -0.965840 0.180853 -0.185596
vn -0.836998 0.028935 0.546441
vn -0.209063 -0.059323 0.976101
vn 0.545517 -0.038199 0.837229
vn 0.973400 0.105087 0.203591
vn -0.169560 0.943135 0.285911
vn -0.249919 0.941188 0.227389
vn -0.009246 0.997628 0.068211
vn 0.228136 0.967302 -0.110817
vn 0.188760 0.971371 -0.144253
vn 0.053541 0.978508 -0.199138
vn -0.163324 0.983795 -0.073983
vn -0.354673 0.927842 0.115393
vn -0.083678 0.955508 0.282848
vn -0.213329 0.956313 0.199891
vn 0.093499 0.982110 0.163457
vn 0.223006 0.973505 -0.050562
vn 0.167761 0.971365 -0.168245
vn 0.068805 0.972317 -0.223307
vn -0.164412 0.984823 -0.055614
vn -0.300924 0.945157 0.126976
vn 0.114247 0.122117 -0.985918
vn 0.785423 0.104398 -0.610091
vn -0.619961 0.141211 -0.771821
vn -0.981622 0.143603 -0.125682
vn -0.777566 0.138303 0.613403
vn -0.110418 0.121438 0.986438
vn 0.594758 0.109222 0.796450
vn 0.982948 0.086672 0.162177
vn 0.189534 0.165944 -0.967749
vn 0.814882 0.103527 -0.570306
vn -0.543023 0.156706 -0.824966
vn -0.972719 0.114491 -0.201764
vn -0.828974 0.046177 0.557378
vn -0.169494 -0.007004 0.985506
vn 0.573723 -0.008515 0.819005
vn 0.985125 0.022870 0.170309
vn 0.161679 0.183206 -0.969688
vn 0.367690 0.042668 -0.928969
vn 0.177497 -0.283355 -0.942446
vn -0.318527 -0.053946 -0.946377
vn -0.234671 0.172961 -0.956564
vn 0.179214 -0.479630 -0.858975
vn -0.167902 -0.597669 -0.783965
vn 0.240517 -0.551036 -0.799069
vn 0.047611 -0.355834 -0.933336
vn -0.328201 -0.399230 -0.856096
s 1
g pSphere6
usemtl initialShadingGroup
f 1/1/1 2/2/2 10/11/3 9/10/4
f 2/2/2 3/3/5 11/12/6 10/11/3
f 3/3/5 4/4/7 12/13/8 11/12/6
f 4/4/7 5/5/9 13/14/10 12/13/8
f 5/5/9 6/6/11 14/15/12 13/14/10
f 6/6/11 7/7/13 15/16/14 14/15/12
f 7/7/13 8/8/15 16/17/16 15/16/14
f 8/8/15 1/9/1 9/18/4 16/17/16
usemtl lambert2SG
f 115/144/17 116/145/18 117/20/19 118/146/20
f 116/145/18 119/147/21 120/148/22 117/20/19
usemtl initialShadingGroup
f 11/12/6 12/13/8 19/22/23 18/21/24
f 12/13/8 13/14/10 20/23/25 19/22/23
f 13/14/10 14/15/12 21/24/26 20/23/25
f 14/15/12 15/16/14 22/25/27 21/24/26
f 15/16/14 16/17/16 23/26/28 22/25/27
f 16/17/16 9/18/4 17/27/29 23/26/28
usemtl lambert2SG
f 118/146/20 117/20/19 121/29/30 122/149/31
f 117/20/19 120/148/22 123/150/32 121/29/30
usemtl initialShadingGroup
f 18/21/24 19/22/23 26/31/33 25/30/34
f 19/22/23 20/23/25 27/32/35 26/31/33
f 20/23/25 21/24/26 28/33/36 27/32/35
f 21/24/26 22/25/27 29/34/37 28/33/36
f 22/25/27 23/26/28 30/35/38 29/34/37
f 23/26/28 17/27/29 24/36/39 30/35/38
usemtl lambert2SG
f 122/149/31 121/29/30 124/151/40 125/152/41
f 121/29/30 123/150/32 126/153/42 124/151/40
usemtl initialShadingGroup
f 25/30/34 26/31/33 34/40/43 33/39/44
f 26/31/33 27/32/35 35/41/45 34/40/43
f 27/32/35 28/33/36 36/42/46 35/41/45
f 28/33/36 29/34/37 37/43/47 36/42/46
f 29/34/37 30/35/38 38/44/48 37/43/47
f 30/35/38 24/36/39 31/45/49 38/44/48
f 31/37/49 32/38/50 40/47/51 39/46/52
f 32/38/50 33/39/44 41/48/53 40/47/51
f 33/39/44 34/40/43 42/49/54 41/48/53
f 34/40/43 35/41/45 43/50/55 42/49/54
f 35/41/45 36/42/46 44/51/56 43/50/55
f 36/42/46 37/43/47 45/52/57 44/51/56
f 37/43/47 38/44/48 46/53/58 45/52/57
f 38/44/48 31/45/49 39/54/52 46/53/58
f 39/46/52 40/47/51 48/56/59 47/55/60
f 40/47/51 41/48/53 49/57/61 48/56/59
f 41/48/53 42/49/54 50/58/62 49/57/61
f 42/49/54 43/50/55 51/59/63 50/58/62
f 43/50/55 44/51/56 52/60/64 51/59/63
f 44/51/56 45/52/57 53/61/65 52/60/64
f 45/52/57 46/53/58 54/62/66 53/61/65
f 46/53/58 39/54/52 47/63/60 54/62/66
f 64/89/67 63/90/68 65/64/69
f 66/91/70 64/89/67 65/65/69
f 67/92/71 66/91/70 65/66/69
f 68/93/72 67/92/71 65/67/69
f 69/94/73 68/93/72 65/68/69
f 70/95/74 69/94/73 65/69/69
f 71/96/75 70/95/74 65/70/69
f 63/97/68 71/96/75 65/71/69
f 96/125/76 97/126/77 98/72/78
f 97/126/77 99/127/79 98/73/78
f 99/127/79 100/128/80 98/74/78
f 100/128/80 101/129/81 98/75/78
f 101/129/81 102/130/82 98/76/78
f 102/130/82 103/131/83 98/77/78
f 103/131/83 104/132/84 98/78/78
f 104/132/84 96/133/76 98/79/78
f 47/55/60 48/56/59 56/81/85 55/80/86
f 48/56/59 49/57/61 57/82/87 56/81/85
f 49/57/61 50/58/62 58/83/88 57/82/87
f 50/58/62 51/59/63 59/84/89 58/83/88
f 51/59/63 52/60/64 60/85/90 59/84/89
f 52/60/64 53/61/65 61/86/91 60/85/90
f 53/61/65 54/62/66 62/87/92 61/86/91
f 54/62/66 47/63/60 55/88/86 62/87/92
f 2/2/2 1/1/1 63/90/68 64/89/67
f 3/3/5 2/2/2 64/89/67 66/91/70
f 4/4/7 3/3/5 66/91/70 67/92/71
f 5/5/9 4/4/7 67/92/71 68/93/72
f 6/6/11 5/5/9 68/93/72 69/94/73
f 7/7/13 6/6/11 69/94/73 70/95/74
f 8/8/15 7/7/13 70/95/74 71/96/75
f 1/9/1 8/8/15 71/96/75 63/97/68
f 55/80/86 56/81/85 73/99/93 72/98/94
f 56/81/85 57/82/87 74/100/95 73/99/93
f 57/82/87 58/83/88 75/101/96 74/100/95
f 58/83/88 59/84/89 76/102/97 75/101/96
f 59/84/89 60/85/90 77/103/98 76/102/97
f 60/85/90 61/86/91 78/104/99 77/103/98
f 61/86/91 62/87/92 79/105/100 78/104/99
f 62/87/92 55/88/86 72/106/94 79/105/100
f 72/98/94 73/99/93 81/108/101 80/107/102
f 73/99/93 74/100/95 82/109/103 81/108/101
f 74/100/95 75/101/96 83/110/104 82/109/103
f 75/101/96 76/102/97 84/111/105 83/110/104
f 76/102/97 77/103/98 85/112/106 84/111/105
f 77/103/98 78/104/99 86/113/107 85/112/106
f 78/104/99 79/105/100 87/114/108 86/113/107
f 79/105/100 72/106/94 80/115/102 87/114/108
f 80/107/102 81/108/101 89/117/109 88/116/110
f 81/108/101 82/109/103 90/118/111 89/117/109
f 82/109/103 83/110/104 91/119/112 90/118/111
f 83/110/104 84/111/105 92/120/113 91/119/112
f 84/111/105 85/112/106 93/121/114 92/120/113
f 85/112/106 86/113/107 94/122/115 93/121/114
f 86/113/107 87/114/108 95/123/116 94/122/115
f 87/114/108 80/115/102 88/124/110 95/123/116
f 88/116/110 89/117/109 97/126/77 96/125/76
f 89/117/109 90/118/111 99/127/79 97/126/77
f 90/118/111 91/119/112 100/128/80 99/127/79
f 91/119/112 92/120/113 101/129/81 100/128/80
f 92/120/113 93/121/114 102/130/82 101/129/81
f 93/121/114 94/122/115 103/131/83 102/130/82
f 94/122/115 95/123/116 104/132/84 103/131/83
f 95/123/116 88/124/110 96/133/76 104/132/84
f 9/10/4 10/11/3 106/135/117 105/134/118
f 17/19/29 9/10/4 105/134/118 107/136/119
f 10/11/3 11/12/6 108/137/120 106/135/117
f 11/12/6 18/21/24 109/138/121 108/137/120
f 24/28/39 17/19/29 107/136/119 110/139/122
f 18/21/24 25/30/34 111/140/123 109/138/121
f 32/38/50 31/37/49 113/142/124 112/141/125
f 31/37/49 24/28/39 110/139/122 113/142/124
f 25/30/34 33/39/44 114/143/126 111/140/123
f 33/39/44 32/38/50 112/141/125 114/143/126
usemtl lambert2SG
f 105/134/118 106/135/117 116/145/18 115/144/17
f 107/136/119 105/134/118 115/144/17 118/146/20
f 106/135/117 108/137/120 119/147/21 116/145/18
f 108/137/120 109/138/121 120/148/22 119/147/21
f 110/139/122 107/136/119 118/146/20 122/149/31
f 109/138/121 111/140/123 123/150/32 120/148/22
f 112/141/125 113/142/124 125/152/41 124/151/40
f 113/142/124 110/139/122 122/149/31 125/152/41
f 111/140/123 114/143/126 126/153/42 123/150/32
f 114/143/126 112/141/125 124/151/40 126/153/42
